<?xml version="1.0" encoding="UTF-8"?>
<!-- Created with Inkscape (http://www.inkscape.org/) -->
<svg width="93.77mm" height="94.435mm" version="1.1" viewBox="0 0 93.77 94.435" xmlns="http://www.w3.org/2000/svg" xmlns:cc="http://creativecommons.org/ns#" xmlns:dc="http://purl.org/dc/elements/1.1/" xmlns:rdf="http://www.w3.org/1999/02/22-rdf-syntax-ns#">
 <defs>
  <linearGradient id="linearGradient26" x2="1" gradientTransform="matrix(183.03 0 0 183.03 -164.18 833.06)" gradientUnits="userSpaceOnUse">
   <stop stop-color="#9c158f" offset="0"/>
   <stop stop-color="#f2581a" offset=".43956"/>
   <stop stop-color="#fff200" offset=".98901"/>
   <stop stop-color="#fff200" offset=".98982"/>
   <stop stop-color="#fff200" offset="1"/>
  </linearGradient>
  <linearGradient id="linearGradient42" x2="1" gradientTransform="matrix(-183.03 0 0 183.03 167.46 832.27)" gradientUnits="userSpaceOnUse">
   <stop stop-color="#9c158f" offset="0"/>
   <stop stop-color="#f2581a" offset=".43956"/>
   <stop stop-color="#fff200" offset=".98901"/>
   <stop stop-color="#fff200" offset=".98982"/>
   <stop stop-color="#fff200" offset="1"/>
  </linearGradient>
  <clipPath id="clipPath52">
   <path d="m204.22 140.96 122.98 2.578z"/>
  </clipPath>
  <linearGradient id="linearGradient70" x2="1" gradientTransform="matrix(-122.13 0 0 122.13 120.31 665.67)" gradientUnits="userSpaceOnUse">
   <stop stop-color="#9c158f" offset="0"/>
   <stop stop-color="#f2581a" offset=".43956"/>
   <stop stop-color="#fff200" offset=".98901"/>
   <stop stop-color="#fff200" offset=".98982"/>
   <stop stop-color="#fff200" offset="1"/>
  </linearGradient>
  <linearGradient id="linearGradient86" x2="1" gradientTransform="matrix(209.9 0 0 209.9 -212.38 667.02)" gradientUnits="userSpaceOnUse">
   <stop stop-color="#9c158f" offset="0"/>
   <stop stop-color="#f2581a" offset=".43956"/>
   <stop stop-color="#fff200" offset=".98901"/>
   <stop stop-color="#fff200" offset=".98982"/>
   <stop stop-color="#fff200" offset="1"/>
  </linearGradient>
  <linearGradient id="linearGradient102" x2="1" gradientTransform="matrix(243.32 0 0 243.32 -242.96 783.94)" gradientUnits="userSpaceOnUse">
   <stop stop-color="#9c158f" offset="0"/>
   <stop stop-color="#f2581a" offset=".43956"/>
   <stop stop-color="#fff200" offset=".98901"/>
   <stop stop-color="#fff200" offset=".98982"/>
   <stop stop-color="#fff200" offset="1"/>
  </linearGradient>
  <linearGradient id="linearGradient118" x2="1" gradientTransform="matrix(61.522 0 0 61.522 -60.668 772.19)" gradientUnits="userSpaceOnUse">
   <stop stop-color="#9c158f" offset="0"/>
   <stop stop-color="#f2581a" offset=".43956"/>
   <stop stop-color="#fff200" offset=".98901"/>
   <stop stop-color="#fff200" offset=".98982"/>
   <stop stop-color="#fff200" offset="1"/>
  </linearGradient>
  <linearGradient id="linearGradient134" x2="1" gradientTransform="matrix(246.97 0 0 246.97 -120.86 911.51)" gradientUnits="userSpaceOnUse">
   <stop stop-color="#9c158f" offset="0"/>
   <stop stop-color="#f2581a" offset=".43956"/>
   <stop stop-color="#fff200" offset=".98901"/>
   <stop stop-color="#fff200" offset=".98982"/>
   <stop stop-color="#fff200" offset="1"/>
  </linearGradient>
  <clipPath id="clipPath144">
   <path d="m265.81 382.72-1.055-5.733h0.477l0.381 2.075h0.852l0.077 0.419h-0.852l0.153 0.841h0.846l0.082 0.419h-0.846l0.362 1.979zm-1.126 0-0.362-1.979h-0.84l-0.076-0.419h0.833l-0.153-0.841h-0.827l-0.096-0.419h0.846l-0.381-2.075h0.478l1.055 5.733zm-4.474-0.541v-4.581h0.477v2.189h1.483v0.4h-1.483v1.593h1.98v0.399zm67.782-21.78c0-2.215 1.012-2.278 1.381-2.278 0.375 0 0.725 0.159 0.961 0.445v-0.445h0.477v2.38h-1.56v-0.401h1.083v-0.306c0-0.916-0.491-1.272-0.936-1.272-0.897 0-0.93 1.311-0.93 1.947 0 0.681 0.039 2.012 0.994 2.012 0.484 0 0.687-0.439 0.65-0.86h0.476c-0.013 0.713-0.375 1.259-1.151 1.259-0.892 0-1.445-0.666-1.445-2.481m-132.01 1.851v-4.581h0.477v2.188h1.482v0.401h-1.482v1.592h1.979v0.4zm184.11-44.672-1.057-5.733h0.477l0.382 2.075h0.853l0.076 0.419h-0.853l0.153 0.841h0.846l0.083 0.419h-0.846l0.363 1.979zm-1.127 0-0.363-1.979h-0.839l-0.077-0.419h0.833l-0.152-0.841h-0.827l-0.095-0.419h0.846l-0.382-2.075h0.477l1.057 5.733zm-4.874-2.933c0-2.214 1.011-2.278 1.38-2.278 0.376 0 0.726 0.158 0.961 0.445v-0.445h0.477v2.38h-1.559v-0.401h1.082v-0.305c0-0.917-0.489-1.273-0.936-1.273-0.897 0-0.929 1.311-0.929 1.946 0 0.682 0.038 2.013 0.993 2.013 0.484 0 0.688-0.439 0.65-0.86h0.476c-0.013 0.713-0.374 1.259-1.151 1.259-0.891 0-1.444-0.667-1.444-2.481m-225.28 0.597v-4.581h2.423v0.399h-1.946v1.752h1.368v0.399h-1.368v1.63h1.902v0.401zm243.05-66.448h0.514l0.408 1.349h1.393l0.408-1.349h0.515l-1.623 4.963zm1.615 3.601 0.586-1.852h-1.165zm-258.33-2.865-1.055-5.733h0.477l0.381 2.075h0.853l0.076 0.419h-0.852l0.153 0.84h0.846l0.083 0.42h-0.846l0.362 1.979zm-1.126 0-0.362-1.979h-0.84l-0.076-0.42h0.833l-0.153-0.84h-0.827l-0.095-0.419h0.846l-0.382-2.075h0.478l1.055 5.733zm-4.727-0.541v-4.581h1.093c1 0 1.547 0.527 1.547 2.291 0 1.788-0.592 2.29-1.476 2.29zm0.476-0.4h0.573c0.611 0 1.114-0.134 1.114-1.89 0-1.707-0.439-1.891-1.101-1.891h-0.586zm252.4-59.616-1.057-5.733h0.477l0.381 2.074h0.854l0.076 0.42h-0.853l0.153 0.84h0.846l0.083 0.419h-0.846l0.362 1.98zm-1.127 0-0.363-1.98h-0.84l-0.076-0.419h0.833l-0.152-0.84h-0.827l-0.095-0.42h0.846l-0.382-2.074h0.477l1.057 5.733zm-5.142-5.122h0.516l0.407 1.349h1.394l0.406-1.349h0.516l-1.623 4.962zm1.616 3.601 0.585-1.853h-1.163zm-228.3-2.961v-4.581h1.094c1 0 1.547 0.527 1.547 2.29 0 1.788-0.592 2.291-1.476 2.291zm0.477-0.401h0.572c0.612 0 1.115-0.133 1.115-1.89 0-1.706-0.44-1.891-1.102-1.891h-0.585zm180.67-44.908v-4.581h1.31c0.803 0 1.285 0.578 1.285 1.246 0 0.593-0.28 0.936-0.801 1.19 0.376 0.21 0.604 0.547 0.604 0.987 0 1.094-0.91 1.158-1.438 1.158zm0.476-0.401h0.515c0.294 0 0.93 0.02 0.93-0.738 0-0.548-0.464-0.859-0.891-0.859h-0.554zm0-1.998h0.598c0.727 0 1.045-0.451 1.045-0.961 0-0.573-0.42-0.821-0.84-0.821h-0.803zm-133.07 0.956-1.056-5.733h0.477l0.382 2.075h0.852l0.077 0.419h-0.852l0.152 0.842h0.846l0.083 0.418h-0.847l0.363 1.979zm-1.126 0-0.363-1.979h-0.839l-0.077-0.418h0.834l-0.153-0.842h-0.827l-0.096-0.419h0.846l-0.381-2.075h0.477l1.056 5.733zm-4.88-2.856c0-0.974 0.183-2.355 1.443-2.355 0.764 0 1.216 0.464 1.266 1.209h-0.476c-7e-3 -0.452-0.293-0.808-0.77-0.808-0.917 0-0.987 1.272-0.987 1.941 0 0.706 0.063 2.018 1.031 2.018 0.389 0 0.662-0.3 0.669-0.682h0.476c-0.038 0.637-0.515 1.081-1.151 1.081-1.292 0-1.501-1.399-1.501-2.404m73.016-17.5c0-0.974 0.184-2.354 1.444-2.354 0.764 0 1.215 0.463 1.266 1.208h-0.477c-6e-3 -0.452-0.292-0.809-0.77-0.809-0.916 0-0.986 1.274-0.986 1.942 0 0.707 0.063 2.018 1.031 2.018 0.388 0 0.662-0.3 0.669-0.681h0.476c-0.038 0.636-0.515 1.081-1.151 1.081-1.293 0-1.502-1.4-1.502-2.405"/>
  </clipPath>
  <linearGradient id="linearGradient160" x2="1" gradientTransform="matrix(264.55 0 0 -264.55 130.55 116.29)" gradientUnits="userSpaceOnUse">
   <stop stop-color="#9c158f" offset="0"/>
   <stop stop-color="#f2581a" offset=".43956"/>
   <stop stop-color="#fff200" offset=".98901"/>
   <stop stop-color="#fff200" offset=".98982"/>
   <stop stop-color="#fff200" offset="1"/>
  </linearGradient>
 </defs>
 <metadata>
  <rdf:RDF>
   <cc:Work rdf:about="">
    <dc:format>image/svg+xml</dc:format>
    <dc:type rdf:resource="http://purl.org/dc/dcmitype/StillImage"/>
    <dc:title/>
   </cc:Work>
  </rdf:RDF>
 </metadata>
 <g transform="translate(-58.115 -101.28)">
  <g transform="matrix(.35278 0 0 -.35278 12.502 236.3)">
   <g transform="translate(368.4 310.88)">
    <path d="m0 0-105.89 59.576m124.91-120.09-124.8 119.88m108.41-181.94-108.44 182.16m63.94-226.75-64.011 226.53m-58.738-229.28 164.81 169.91m-164.88-169.98 183.72 109.46m-183.76-109.64 167.76 48.319" fill="none" stroke="url(#linearGradient26)" stroke-width="1.066"/>
   </g>
   <g transform="translate(157.21 307.99)">
    <path d="m0 0 104.73 62.748m-120.15-124.11 120.25 124.06m-103.53-184.98 103.53 184.79m-58.003-229.79 58.217 229.61m64.641-226.54-169.65 163.9m169.65-163.9-185.14 102.91m185.2-102.8-168.28 41.571" fill="none" stroke="url(#linearGradient42)" stroke-width="1.066"/>
   </g>
   <g clip-path="url(#clipPath52)">
    <g transform="translate(256.08 141.56)">
     <path d="m0 0h67.875" fill="none" stroke="#050606" stroke-width="1.289"/>
    </g>
   </g>
   <g transform="translate(204.22 140.96)">
    <path d="m0 0 122.98 2.577" fill="none" stroke="url(#linearGradient70)" stroke-miterlimit="10" stroke-width="1.066"/>
   </g>
   <g transform="translate(370.8 188.86)">
    <path d="m0 0-212.23-3.021" fill="none" stroke="url(#linearGradient86)" stroke-width="1.066"/>
   </g>
   <g transform="translate(387.2 250.14)">
    <path d="m0 0-120.47-124.64-125.12 121.04 62.918-105.4" fill="none" stroke="url(#linearGradient102)" stroke-width="1.066"/>
   </g>
   <g transform="translate(387.24 250)">
    <path d="m0 0-60.216-106.31" fill="none" stroke="url(#linearGradient118)" stroke-width="1.066"/>
   </g>
   <g transform="translate(262.1 370.8)">
    <path d="m0 0-60.796-17.37-44.15-45.235-15.38-61.52 16.828-61.158 45.597-44.874 61.882-15.199 61.158 18.095 44.149 45.597 16.285 61.158-19.18 60.796-45.597 44.149z" fill="none" stroke="url(#linearGradient134)" stroke-width="1.066"/>
   </g>
   <g clip-path="url(#clipPath144)">
    <path d="m265.81 382.72-1.055-5.733h0.477l0.381 2.075h0.852l0.077 0.419h-0.852l0.153 0.841h0.846l0.082 0.419h-0.846l0.362 1.979zm-1.126 0-0.362-1.979h-0.84l-0.076-0.419h0.833l-0.153-0.841h-0.827l-0.096-0.419h0.846l-0.381-2.075h0.478l1.055 5.733zm-4.474-0.541v-4.581h0.477v2.189h1.483v0.4h-1.483v1.593h1.98v0.399zm67.782-21.78c0-2.215 1.012-2.278 1.381-2.278 0.375 0 0.725 0.159 0.961 0.445v-0.445h0.477v2.38h-1.56v-0.401h1.083v-0.306c0-0.916-0.491-1.272-0.936-1.272-0.897 0-0.93 1.311-0.93 1.947 0 0.681 0.039 2.012 0.994 2.012 0.484 0 0.687-0.439 0.65-0.86h0.476c-0.013 0.713-0.375 1.259-1.151 1.259-0.892 0-1.445-0.666-1.445-2.481m-132.01 1.851v-4.581h0.477v2.188h1.482v0.401h-1.482v1.592h1.979v0.4zm184.11-44.672-1.057-5.733h0.477l0.382 2.075h0.853l0.076 0.419h-0.853l0.153 0.841h0.846l0.083 0.419h-0.846l0.363 1.979zm-1.127 0-0.363-1.979h-0.839l-0.077-0.419h0.833l-0.152-0.841h-0.827l-0.095-0.419h0.846l-0.382-2.075h0.477l1.057 5.733zm-4.874-2.933c0-2.214 1.011-2.278 1.38-2.278 0.376 0 0.726 0.158 0.961 0.445v-0.445h0.477v2.38h-1.559v-0.401h1.082v-0.305c0-0.917-0.489-1.273-0.936-1.273-0.897 0-0.929 1.311-0.929 1.946 0 0.682 0.038 2.013 0.993 2.013 0.484 0 0.688-0.439 0.65-0.86h0.476c-0.013 0.713-0.374 1.259-1.151 1.259-0.891 0-1.444-0.667-1.444-2.481m-225.28 0.597v-4.581h2.423v0.399h-1.946v1.752h1.368v0.399h-1.368v1.63h1.902v0.401zm243.05-66.448h0.514l0.408 1.349h1.393l0.408-1.349h0.515l-1.623 4.963zm1.615 3.601 0.586-1.852h-1.165zm-258.33-2.865-1.055-5.733h0.477l0.381 2.075h0.853l0.076 0.419h-0.852l0.153 0.84h0.846l0.083 0.42h-0.846l0.362 1.979zm-1.126 0-0.362-1.979h-0.84l-0.076-0.42h0.833l-0.153-0.84h-0.827l-0.095-0.419h0.846l-0.382-2.075h0.478l1.055 5.733zm-4.727-0.541v-4.581h1.093c1 0 1.547 0.527 1.547 2.291 0 1.788-0.592 2.29-1.476 2.29zm0.476-0.4h0.573c0.611 0 1.114-0.134 1.114-1.89 0-1.707-0.439-1.891-1.101-1.891h-0.586zm252.4-59.616-1.057-5.733h0.477l0.381 2.074h0.854l0.076 0.42h-0.853l0.153 0.84h0.846l0.083 0.419h-0.846l0.362 1.98zm-1.127 0-0.363-1.98h-0.84l-0.076-0.419h0.833l-0.152-0.84h-0.827l-0.095-0.42h0.846l-0.382-2.074h0.477l1.057 5.733zm-5.142-5.122h0.516l0.407 1.349h1.394l0.406-1.349h0.516l-1.623 4.962zm1.616 3.601 0.585-1.853h-1.163zm-228.3-2.961v-4.581h1.094c1 0 1.547 0.527 1.547 2.29 0 1.788-0.592 2.291-1.476 2.291zm0.477-0.401h0.572c0.612 0 1.115-0.133 1.115-1.89 0-1.706-0.44-1.891-1.102-1.891h-0.585zm180.67-44.908v-4.581h1.31c0.803 0 1.285 0.578 1.285 1.246 0 0.593-0.28 0.936-0.801 1.19 0.376 0.21 0.604 0.547 0.604 0.987 0 1.094-0.91 1.158-1.438 1.158zm0.476-0.401h0.515c0.294 0 0.93 0.02 0.93-0.738 0-0.548-0.464-0.859-0.891-0.859h-0.554zm0-1.998h0.598c0.727 0 1.045-0.451 1.045-0.961 0-0.573-0.42-0.821-0.84-0.821h-0.803zm-133.07 0.956-1.056-5.733h0.477l0.382 2.075h0.852l0.077 0.419h-0.852l0.152 0.842h0.846l0.083 0.418h-0.847l0.363 1.979zm-1.126 0-0.363-1.979h-0.839l-0.077-0.418h0.834l-0.153-0.842h-0.827l-0.096-0.419h0.846l-0.381-2.075h0.477l1.056 5.733zm-4.88-2.856c0-0.974 0.183-2.355 1.443-2.355 0.764 0 1.216 0.464 1.266 1.209h-0.476c-7e-3 -0.452-0.293-0.808-0.77-0.808-0.917 0-0.987 1.272-0.987 1.941 0 0.706 0.063 2.018 1.031 2.018 0.389 0 0.662-0.3 0.669-0.682h0.476c-0.038 0.637-0.515 1.081-1.151 1.081-1.292 0-1.501-1.399-1.501-2.404m73.016-17.5c0-0.974 0.184-2.354 1.444-2.354 0.764 0 1.215 0.463 1.266 1.208h-0.477c-6e-3 -0.452-0.292-0.809-0.77-0.809-0.916 0-0.986 1.274-0.986 1.942 0 0.707 0.063 2.018 1.031 2.018 0.388 0 0.662-0.3 0.669-0.681h0.476c-0.038 0.636-0.515 1.081-1.151 1.081-1.293 0-1.502-1.4-1.502-2.405" fill="url(#linearGradient160)"/>
   </g>
  </g>
 </g>
</svg>
