<?xml version="1.0" encoding="UTF-8" standalone="no"?>
<svg
   xmlns:dc="http://purl.org/dc/elements/1.1/"
   xmlns:cc="http://creativecommons.org/ns#"
   xmlns:rdf="http://www.w3.org/1999/02/22-rdf-syntax-ns#"
   xmlns:svg="http://www.w3.org/2000/svg"
   xmlns="http://www.w3.org/2000/svg"
   xmlns:sodipodi="http://sodipodi.sourceforge.net/DTD/sodipodi-0.dtd"
   xmlns:inkscape="http://www.inkscape.org/namespaces/inkscape"
   aria-hidden="true"
   data-prefix="far"
   data-icon="calendar"
   class="svg-inline--fa fa-calendar fa-w-14"
   role="img"
   viewBox="0 0 448 512"
   version="1.1"
   id="svg4"
   sodipodi:docname="calendar-regular.svg"
   inkscape:version="0.92.3 (2405546, 2018-03-11)">
  <metadata
     id="metadata10">
    <rdf:RDF>
      <cc:Work
         rdf:about="">
        <dc:format>image/svg+xml</dc:format>
        <dc:type
           rdf:resource="http://purl.org/dc/dcmitype/StillImage" />
        <dc:title></dc:title>
      </cc:Work>
    </rdf:RDF>
  </metadata>
  <defs
     id="defs8" />
  <sodipodi:namedview
     pagecolor="#ffffff"
     bordercolor="#666666"
     borderopacity="1"
     objecttolerance="10"
     gridtolerance="10"
     guidetolerance="10"
     inkscape:pageopacity="0"
     inkscape:pageshadow="2"
     inkscape:window-width="1920"
     inkscape:window-height="1025"
     id="namedview6"
     showgrid="false"
     inkscape:zoom="0.4609375"
     inkscape:cx="189.28814"
     inkscape:cy="256"
     inkscape:window-x="0"
     inkscape:window-y="0"
     inkscape:window-maximized="1"
     inkscape:current-layer="svg4" />
  <path
     d="M 108 0 C 101.4 0 96 5.4 96 12 L 96 64 L 48 64 C 21.5 64 0 85.5 0 112 L 0 464 C 0 490.5 21.5 512 48 512 L 400 512 C 426.5 512 448 490.5 448 464 L 448 112 C 448 85.5 426.5 64 400 64 L 352 64 L 352 12 C 352 5.4 346.6 0 340 0 L 300 0 C 293.4 0 288 5.4 288 12 L 288 64 L 160 64 L 160 12 C 160 5.4 154.6 0 148 0 L 108 0 z M 48 160 L 400 160 L 400 458 C 400 461.3 397.3 464 394 464 L 54 464 C 50.7 464 48 461.3 48 458 L 48 160 z M 138.2832 190.52734 C 129.41911 190.52734 120.37386 191.36406 111.14648 193.03516 C 101.91911 194.6336 92.58206 196.99491 83.136719 200.11914 L 83.136719 235.86523 C 92.000808 230.34334 100.32146 226.20235 108.0957 223.44141 C 115.86995 220.6078 123.02537 219.19141 129.56445 219.19141 C 138.06526 219.19141 144.85936 221.516 149.94531 226.16602 C 155.10392 230.81603 157.68359 236.95505 157.68359 244.58398 C 157.68359 249.52462 156.41212 254.28397 153.86914 258.86133 C 151.32616 263.43869 147.40158 268.12459 142.09766 272.91992 L 82.701172 325.3418 L 82.701172 356.18359 L 200.94922 356.18359 L 200.94922 325.3418 L 129.34766 325.3418 L 164.11328 294.82617 C 178.78989 281.96598 188.41678 271.72073 192.99414 264.0918 C 197.5715 256.39021 199.85938 248.10823 199.85938 239.24414 C 199.85938 223.91362 194.44691 211.96214 183.62109 203.38867 C 172.86794 194.81521 157.75514 190.52734 138.2832 190.52734 z M 295.43945 193.4707 L 230.26758 290.57617 L 230.26758 326.54102 L 302.41406 326.54102 L 302.41406 356.18359 L 342.08398 356.18359 L 342.08398 326.54102 L 365.29883 326.54102 L 365.29883 296.13281 L 342.08398 296.13281 L 342.08398 193.4707 L 295.43945 193.4707 z M 302.41406 228.01758 L 302.41406 296.13281 L 256.42383 296.13281 L 302.41406 228.01758 z M 253.1875 378.76562 L 253.1875 427.39062 L 264.375 427.39062 L 264.375 422.32812 C 265.91667 424.36979 267.625 425.88021 269.5 426.85938 C 271.375 427.81771 273.53125 428.29688 275.96875 428.29688 C 280.28125 428.29687 283.82292 426.58854 286.59375 423.17188 C 289.36458 419.73438 290.75 415.31771 290.75 409.92188 C 290.75 404.52604 289.36458 400.11979 286.59375 396.70312 C 283.82292 393.26562 280.28125 391.54688 275.96875 391.54688 C 273.53125 391.54688 271.375 392.03646 269.5 393.01562 C 267.625 393.97396 265.91667 395.47396 264.375 397.51562 L 264.375 378.76562 L 253.1875 378.76562 z M 106.375 379.89062 C 98.895833 379.89063 93.020833 382.03646 88.75 386.32812 C 84.5 390.61979 82.375 396.54688 82.375 404.10938 C 82.375 411.65104 84.5 417.56771 88.75 421.85938 C 93.020833 426.15104 98.895833 428.29688 106.375 428.29688 C 113.875 428.29687 119.75 426.15104 124 421.85938 C 128.25 417.56771 130.375 411.65104 130.375 404.10938 C 130.375 396.54687 128.25 390.61979 124 386.32812 C 119.75 382.03646 113.875 379.89062 106.375 379.89062 z M 177.96875 382.45312 L 177.96875 392.39062 L 172.40625 392.39062 L 172.40625 400.39062 L 177.96875 400.39062 L 177.96875 415.23438 C 177.96875 419.65104 178.88542 422.78646 180.71875 424.64062 C 182.57292 426.47396 185.70833 427.39062 190.125 427.39062 L 199.71875 427.39062 L 199.71875 419.39062 L 193.96875 419.39062 C 192.05208 419.39062 190.77083 419.10938 190.125 418.54688 C 189.47917 417.96354 189.15625 416.85938 189.15625 415.23438 L 189.15625 400.39062 L 200.6875 400.39062 L 200.6875 392.39062 L 189.15625 392.39062 L 189.15625 382.45312 L 177.96875 382.45312 z M 106.375 388.60938 C 110.0625 388.60937 112.91667 389.96354 114.9375 392.67188 C 116.95833 395.38021 117.96875 399.19271 117.96875 404.10938 C 117.96875 409.00521 116.95833 412.80729 114.9375 415.51562 C 112.91667 418.22396 110.0625 419.57812 106.375 419.57812 C 102.70833 419.57813 99.864583 418.22396 97.84375 415.51562 C 95.822917 412.80729 94.8125 409.00521 94.8125 404.10938 C 94.8125 399.19271 95.822917 395.38021 97.84375 392.67188 C 99.864583 389.96354 102.70833 388.60938 106.375 388.60938 z M 156.46875 391.54688 C 150.15625 391.54688 145.21875 393.17188 141.65625 396.42188 C 138.09375 399.65104 136.3125 404.15104 136.3125 409.92188 C 136.3125 415.69271 138.09375 420.20312 141.65625 423.45312 C 145.21875 426.68229 150.15625 428.29688 156.46875 428.29688 C 158.28125 428.29688 160.08333 428.13021 161.875 427.79688 C 163.6875 427.48438 165.46875 427.00521 167.21875 426.35938 L 167.21875 417.20312 C 165.88542 418.22396 164.42708 418.99479 162.84375 419.51562 C 161.28125 420.03646 159.625 420.29688 157.875 420.29688 C 154.75 420.29688 152.3125 419.39062 150.5625 417.57812 C 148.83333 415.74479 147.96875 413.19271 147.96875 409.92188 C 147.96875 406.65104 148.83333 404.10938 150.5625 402.29688 C 152.3125 400.46354 154.75 399.54688 157.875 399.54688 C 159.52083 399.54688 161.10417 399.79688 162.625 400.29688 C 164.16667 400.79688 165.69792 401.56771 167.21875 402.60938 L 167.21875 393.48438 C 165.44792 392.83854 163.66667 392.35938 161.875 392.04688 C 160.10417 391.71354 158.30208 391.54688 156.46875 391.54688 z M 321.90625 391.54688 C 319.30208 391.54688 317.0625 392.07812 315.1875 393.14062 C 313.33333 394.18229 311.6875 395.84896 310.25 398.14062 L 310.25 392.39062 L 299.0625 392.39062 L 299.0625 427.39062 L 310.25 427.39062 L 310.25 411.26562 C 310.25 407.82813 311.02083 405.19271 312.5625 403.35938 C 314.125 401.50521 316.34375 400.57812 319.21875 400.57812 C 320.19792 400.57813 321.16667 400.69271 322.125 400.92188 C 323.10417 401.13021 324.08333 401.46354 325.0625 401.92188 L 325.03125 391.79688 C 324.19792 391.69271 323.5625 391.63021 323.125 391.60938 C 322.6875 391.56771 322.28125 391.54688 321.90625 391.54688 z M 347.46875 391.54688 C 341.42708 391.54687 336.67708 393.18229 333.21875 396.45312 C 329.78125 399.72396 328.0625 404.21354 328.0625 409.92188 C 328.0625 415.73438 329.8125 420.25521 333.3125 423.48438 C 336.83333 426.69271 341.76042 428.29688 348.09375 428.29688 C 350.73958 428.29688 353.38542 428.03646 356.03125 427.51562 C 358.67708 427.01562 361.32292 426.26562 363.96875 425.26562 L 363.96875 416.64062 C 361.36458 418.05729 358.82292 419.11979 356.34375 419.82812 C 353.88542 420.51562 351.47917 420.85938 349.125 420.85938 C 346.20833 420.85938 343.9375 420.20312 342.3125 418.89062 C 340.6875 417.57812 339.73958 415.60938 339.46875 412.98438 L 365.625 412.98438 L 365.625 409.79688 C 365.625 404.25521 363.96875 399.82812 360.65625 396.51562 C 357.36458 393.20312 352.96875 391.54688 347.46875 391.54688 z M 207.1875 392.39062 L 207.1875 413.76562 C 207.1875 418.49479 208.23958 422.09896 210.34375 424.57812 C 212.46875 427.05729 215.55208 428.29688 219.59375 428.29688 C 221.86458 428.29688 223.9375 427.81771 225.8125 426.85938 C 227.70833 425.88021 229.5 424.36979 231.1875 422.32812 L 231.1875 427.39062 L 242.375 427.39062 L 242.375 392.39062 L 231.1875 392.39062 L 231.1875 409.67188 C 231.1875 412.85938 230.52083 415.34896 229.1875 417.14062 C 227.85417 418.93229 226.02083 419.82812 223.6875 419.82812 C 222.72917 419.82813 221.875 419.63021 221.125 419.23438 C 220.39583 418.83854 219.80208 418.27604 219.34375 417.54688 C 218.98958 416.98437 218.73958 416.08854 218.59375 414.85938 C 218.44792 413.60938 218.375 411.57812 218.375 408.76562 C 218.375 407.80729 218.38542 405.90104 218.40625 403.04688 C 218.42708 400.17188 218.4375 397.78646 218.4375 395.89062 L 218.4375 392.39062 L 207.1875 392.39062 z M 347.40625 398.98438 C 349.40625 398.98438 351.02083 399.64062 352.25 400.95312 C 353.5 402.24479 354.125 403.95312 354.125 406.07812 L 339.59375 406.07812 C 339.92708 403.78646 340.77083 402.03646 342.125 400.82812 C 343.47917 399.59896 345.23958 398.98438 347.40625 398.98438 z M 271.8125 399.67188 C 274.20833 399.67188 276.03125 400.54688 277.28125 402.29688 C 278.55208 404.04687 279.1875 406.58854 279.1875 409.92188 C 279.1875 413.25521 278.55208 415.79688 277.28125 417.54688 C 276.03125 419.29688 274.20833 420.17188 271.8125 420.17188 C 269.41667 420.17188 267.57292 419.29688 266.28125 417.54688 C 265.01042 415.77604 264.375 413.23438 264.375 409.92188 C 264.375 406.60938 265.01042 404.07812 266.28125 402.32812 C 267.57292 400.55729 269.41667 399.67188 271.8125 399.67188 z "
     id="path2"
     style="fill:#333333" />
</svg>
