<?xml version="1.0" encoding="UTF-8" standalone="no"?>
<svg
   xmlns:dc="http://purl.org/dc/elements/1.1/"
   xmlns:cc="http://creativecommons.org/ns#"
   xmlns:rdf="http://www.w3.org/1999/02/22-rdf-syntax-ns#"
   xmlns:svg="http://www.w3.org/2000/svg"
   xmlns="http://www.w3.org/2000/svg"
   id="svg8"
   version="1.1"
   viewBox="0 0 44.064983 14.224096"
   height="14.224096mm"
   width="44.064983mm">
  <title
     id="title90">Logo Conservatorio de Música UACh</title>
  <defs
     id="defs2">
    <clipPath
       clipPathUnits="userSpaceOnUse"
       id="clipPath47">
      <path
         d="M 21,21 H 502.89 V 644.622 H 21 Z"
         id="path45" />
    </clipPath>
    <clipPath
       clipPathUnits="userSpaceOnUse"
       id="clipPath187">
      <path
         d="M 21,21 H 502.89 V 644.622 H 21 Z"
         id="path185" />
    </clipPath>
    <clipPath
       clipPathUnits="userSpaceOnUse"
       id="clipPath217">
      <path
         d="M 21,21 H 502.89 V 644.622 H 21 Z"
         id="path215" />
    </clipPath>
    <clipPath
       clipPathUnits="userSpaceOnUse"
       id="clipPath233">
      <path
         d="M 21,21 H 502.89 V 644.622 H 21 Z"
         id="path231" />
    </clipPath>
    <clipPath
       clipPathUnits="userSpaceOnUse"
       id="clipPath261">
      <path
         d="M 21,21 H 502.89 V 644.622 H 21 Z"
         id="path259" />
    </clipPath>
    <clipPath
       clipPathUnits="userSpaceOnUse"
       id="clipPath281">
      <path
         d="M 21,21 H 502.89 V 644.622 H 21 Z"
         id="path279" />
    </clipPath>
    <clipPath
       clipPathUnits="userSpaceOnUse"
       id="clipPath631">
      <path
         d="M 21,21 H 502.89 V 644.622 H 21 Z"
         id="path629" />
    </clipPath>
    <clipPath
       clipPathUnits="userSpaceOnUse"
       id="clipPath733">
      <path
         d="M 21,21 H 502.89 V 644.622 H 21 Z"
         id="path731" />
    </clipPath>
    <clipPath
       clipPathUnits="userSpaceOnUse"
       id="clipPath765">
      <path
         d="M 21,21 H 502.89 V 644.622 H 21 Z"
         id="path763" />
    </clipPath>
    <clipPath
       clipPathUnits="userSpaceOnUse"
       id="clipPath789">
      <path
         d="M 21,21 H 502.89 V 644.622 H 21 Z"
         id="path787" />
    </clipPath>
    <clipPath
       clipPathUnits="userSpaceOnUse"
       id="clipPath817">
      <path
         d="M 21,21 H 502.89 V 644.622 H 21 Z"
         id="path815" />
    </clipPath>
    <clipPath
       clipPathUnits="userSpaceOnUse"
       id="clipPath931">
      <path
         d="M 21,21 H 502.89 V 644.622 H 21 Z"
         id="path929" />
    </clipPath>
    <clipPath
       clipPathUnits="userSpaceOnUse"
       id="clipPath973">
      <path
         d="M 21,21 H 502.89 V 644.622 H 21 Z"
         id="path971" />
    </clipPath>
    <clipPath
       clipPathUnits="userSpaceOnUse"
       id="clipPath997">
      <path
         d="M 21,21 H 502.89 V 644.622 H 21 Z"
         id="path995" />
    </clipPath>
    <clipPath
       clipPathUnits="userSpaceOnUse"
       id="clipPath1013">
      <path
         d="M 21,21 H 502.89 V 644.622 H 21 Z"
         id="path1011" />
    </clipPath>
    <clipPath
       clipPathUnits="userSpaceOnUse"
       id="clipPath1041">
      <path
         d="M 21,21 H 502.89 V 644.622 H 21 Z"
         id="path1039" />
    </clipPath>
    <clipPath
       clipPathUnits="userSpaceOnUse"
       id="clipPath1125">
      <path
         d="M 21,21 H 502.89 V 644.622 H 21 Z"
         id="path1123" />
    </clipPath>
    <clipPath
       clipPathUnits="userSpaceOnUse"
       id="clipPath1181">
      <path
         d="M 21,21 H 502.89 V 644.622 H 21 Z"
         id="path1179" />
    </clipPath>
    <clipPath
       clipPathUnits="userSpaceOnUse"
       id="clipPath1205">
      <path
         d="M 21,21 H 502.89 V 644.622 H 21 Z"
         id="path1203" />
    </clipPath>
    <clipPath
       clipPathUnits="userSpaceOnUse"
       id="clipPath1249">
      <path
         d="M 0,0 H 523.89 V 665.622 H 0 Z"
         id="path1247" />
    </clipPath>
    <clipPath
       clipPathUnits="userSpaceOnUse"
       id="clipPath1557">
      <path
         d="M 0,0 H 523.89 V 665.622 H 0 Z"
         id="path1555" />
    </clipPath>
    <clipPath
       clipPathUnits="userSpaceOnUse"
       id="clipPath1653">
      <path
         d="M 0,0 H 523.89 V 665.622 H 0 Z"
         id="path1651" />
    </clipPath>
  </defs>
  <metadata
     id="metadata5">
    <rdf:RDF>
      <cc:Work
         rdf:about="">
        <dc:format>image/svg+xml</dc:format>
        <dc:type
           rdf:resource="http://purl.org/dc/dcmitype/StillImage" />
        <dc:title>Logo Conservatorio de Música UACh</dc:title>
      </cc:Work>
    </rdf:RDF>
  </metadata>
  <g
     transform="translate(-86.621748,-151.1254)"
     id="layer1">
    <g
       style="fill:#000000"
       id="g5120">
      <g
         style="fill:#000000"
         id="g391"
         transform="matrix(0.35277777,0,0,-0.35277777,109.08653,161.0618)">
        <path
           d="M 0,0 H 1.296 C 2.194,0 2.747,0.144 3.281,0.675 3.789,1.152 4.097,1.971 4.097,3.097 4.097,4.294 3.753,5.185 3.055,5.698 2.484,6.112 2.003,6.175 1.052,6.175 H 0 Z M 0.508,0.423 V 5.752 H 1.233 C 1.958,5.752 2.429,5.653 2.846,5.23 3.3,4.762 3.535,4.132 3.535,3.034 3.535,2.124 3.281,1.458 2.919,1.008 2.547,0.513 1.949,0.423 1.242,0.423 Z M 8.077,0 h 3.336 V 0.441 H 8.593 V 2.998 H 10.76 V 3.439 H 8.593 v 2.313 h 2.647 l 0.073,0.423 H 8.077 Z m 11.439,0 h 0.499 l 0.399,4.816 c 0.018,0.306 0.054,0.882 0.054,0.909 0.009,-0.045 0.109,-0.441 0.245,-0.918 L 22.127,0 h 0.444 l 1.469,4.951 c 0.09,0.306 0.19,0.738 0.208,0.774 0,-0.027 0.018,-0.504 0.036,-0.819 L 24.71,0 h 0.517 L 24.674,6.175 H 23.922 L 22.544,1.521 C 22.435,1.152 22.363,0.792 22.363,0.756 c -0.009,0.036 -0.082,0.387 -0.2,0.81 l -1.35,4.609 H 20.06 Z m 10.951,6.598 1.794,0.9 -0.272,0.478 -1.686,-1.081 z m 0.652,-6.688 c 0.753,0 1.224,0.189 1.559,0.513 0.336,0.324 0.426,0.72 0.426,1.368 V 6.175 H 32.597 V 1.854 c 0,-0.423 -0.055,-0.774 -0.272,-1.062 -0.2,-0.27 -0.589,-0.45 -1.179,-0.45 -0.752,0 -1.096,0.315 -1.251,0.585 -0.136,0.234 -0.181,0.666 -0.181,1.017 V 6.175 H 29.207 V 1.764 c 0,-0.333 0.036,-0.756 0.235,-1.08 0.308,-0.504 0.789,-0.774 1.677,-0.774 m 7.578,-0.009 c 0.544,0 0.988,0.126 1.351,0.369 0.48,0.333 0.752,0.846 0.752,1.422 0,0.414 -0.163,0.81 -0.408,1.081 -0.253,0.279 -0.58,0.441 -1.042,0.585 l -0.68,0.216 c -0.372,0.108 -0.653,0.252 -0.825,0.423 -0.199,0.189 -0.263,0.45 -0.263,0.738 0,0.711 0.562,1.125 1.36,1.125 0.553,0 0.943,-0.144 1.459,-0.477 l 0.227,0.369 c -0.508,0.342 -1.061,0.531 -1.713,0.531 -1.088,0 -1.886,-0.648 -1.886,-1.647 0,-0.396 0.118,-0.747 0.372,-1.017 0.227,-0.234 0.544,-0.378 1.033,-0.531 L 39.06,2.89 C 39.395,2.791 39.694,2.647 39.912,2.439 40.12,2.241 40.229,1.962 40.229,1.62 40.229,1.197 40.075,0.855 39.758,0.621 39.504,0.414 39.169,0.324 38.697,0.324 c -0.625,0 -1.142,0.162 -1.631,0.513 L 36.839,0.432 c 0.562,-0.36 1.151,-0.531 1.858,-0.531 M 44.662,0 h 0.499 v 6.175 h -0.499 z m 6.953,-0.09 c 0.571,0 1.142,0.18 1.613,0.504 l -0.281,0.351 c -0.399,-0.288 -0.789,-0.432 -1.26,-0.432 -0.698,0 -1.305,0.315 -1.668,1.053 -0.199,0.396 -0.317,0.909 -0.317,1.612 0,0.774 0.136,1.386 0.344,1.827 0.318,0.657 0.861,1.008 1.559,1.008 0.481,0 0.843,-0.117 1.224,-0.405 l 0.272,0.333 c -0.417,0.324 -0.906,0.486 -1.486,0.486 -0.807,0 -1.478,-0.396 -1.913,-1.062 -0.345,-0.531 -0.553,-1.287 -0.553,-2.115 0,-0.919 0.217,-1.756 0.68,-2.314 C 50.3,0.162 50.926,-0.09 51.615,-0.09 M 56.156,0 h 0.517 l 0.643,2.007 h 2.411 L 60.371,0 h 0.58 l -2.057,6.175 h -0.671 z m 1.305,2.421 1.079,3.295 1.061,-3.295 z"
           style="fill:#000000;fill-opacity:1;fill-rule:nonzero;stroke:none"
           id="path393" />
      </g>
      <g
         style="fill:#000000"
         id="g395"
         transform="matrix(0.35277777,0,0,-0.35277777,109.87002,157.28281)">
        <path
           d="M 0,0 C 0.57,0 1.141,0.18 1.612,0.504 L 1.331,0.855 C 0.932,0.567 0.543,0.423 0.072,0.423 c -0.697,0 -1.303,0.315 -1.665,1.053 -0.2,0.396 -0.317,0.909 -0.317,1.612 0,0.774 0.136,1.386 0.344,1.827 0.317,0.657 0.86,1.008 1.557,1.008 0.48,0 0.842,-0.117 1.222,-0.405 L 1.485,5.851 C 1.068,6.175 0.579,6.337 0,6.337 -0.806,6.337 -1.476,5.941 -1.91,5.275 -2.254,4.744 -2.463,3.988 -2.463,3.16 -2.463,2.241 -2.245,1.404 -1.784,0.846 -1.313,0.252 -0.688,0 0,0 m 4.49,-0.009 c 0.779,0 1.268,0.333 1.648,0.765 0.498,0.549 0.751,1.278 0.751,2.35 C 6.889,4.06 6.708,4.78 6.364,5.32 6.084,5.77 5.531,6.355 4.472,6.355 3.603,6.355 3.014,5.941 2.652,5.401 2.299,4.879 2.082,4.123 2.082,3.187 2.082,2.205 2.317,1.413 2.725,0.882 3.078,0.405 3.639,-0.009 4.49,-0.009 m 0.027,0.396 c -0.679,0 -1.222,0.387 -1.457,0.801 -0.245,0.45 -0.408,1.197 -0.408,2.098 0,0.801 0.127,1.377 0.353,1.818 0.236,0.441 0.743,0.837 1.467,0.837 0.815,0 1.277,-0.468 1.494,-0.918 C 6.192,4.564 6.31,3.925 6.31,3.034 6.31,2.07 6.156,1.53 5.866,1.098 5.604,0.72 5.196,0.387 4.517,0.387 M 8.338,0.09 H 8.863 L 8.845,4.312 C 8.836,4.951 8.79,5.644 8.79,5.644 c 0,0 0.254,-0.585 0.58,-1.179 L 11.724,0.09 h 0.543 V 6.265 H 11.76 L 11.778,2.268 C 11.787,1.584 11.832,0.756 11.832,0.747 11.814,0.783 11.561,1.368 11.307,1.845 L 8.944,6.265 H 8.338 Z m 7.025,-0.099 c 0.543,0 0.987,0.126 1.349,0.369 0.48,0.333 0.752,0.846 0.752,1.422 0,0.414 -0.163,0.811 -0.408,1.081 -0.253,0.279 -0.579,0.441 -1.041,0.585 l -0.679,0.216 c -0.371,0.108 -0.652,0.252 -0.824,0.423 -0.199,0.189 -0.262,0.45 -0.262,0.738 0,0.711 0.561,1.125 1.358,1.125 0.552,0 0.941,-0.144 1.457,-0.477 l 0.227,0.369 c -0.507,0.342 -1.06,0.531 -1.712,0.531 -1.086,0 -1.883,-0.648 -1.883,-1.647 0,-0.396 0.118,-0.747 0.371,-1.017 0.227,-0.234 0.544,-0.378 1.033,-0.531 L 15.725,2.98 c 0.335,-0.099 0.634,-0.243 0.851,-0.45 0.209,-0.199 0.317,-0.478 0.317,-0.82 0,-0.423 -0.154,-0.765 -0.471,-0.999 -0.253,-0.207 -0.588,-0.297 -1.059,-0.297 -0.625,0 -1.141,0.162 -1.63,0.513 L 13.507,0.522 c 0.561,-0.36 1.15,-0.531 1.856,-0.531 m 3.332,0.099 h 3.331 v 0.441 h -2.815 v 2.557 h 2.163 v 0.441 h -2.163 v 2.313 h 2.643 l 0.073,0.423 h -3.232 z m 4.535,0 h 0.507 v 2.827 c 0,0.009 0.281,0 0.281,0 0.398,0 0.625,-0.225 0.86,-0.532 0.589,-0.756 1.34,-2.034 1.458,-2.295 h 0.642 c 0,0 -0.814,1.278 -1.276,1.98 -0.326,0.496 -0.498,0.685 -0.797,0.856 h 0.064 c 1.014,0 1.693,0.612 1.693,1.647 0,0.657 -0.326,1.08 -0.607,1.305 -0.299,0.243 -0.715,0.387 -1.539,0.387 H 23.23 Z m 0.516,3.151 v 2.592 h 0.788 c 0.48,0 0.779,-0.081 0.996,-0.207 0.326,-0.162 0.588,-0.567 0.588,-1.044 0,-0.513 -0.181,-0.846 -0.416,-1.035 C 25.448,3.349 25.095,3.241 24.507,3.241 Z M 29.468,0.09 h 0.516 l 2.119,6.175 H 31.578 L 30.075,1.746 C 29.903,1.224 29.767,0.765 29.74,0.666 29.722,0.783 29.577,1.368 29.423,1.809 l -1.476,4.456 h -0.561 z m 2.643,0 h 0.516 l 0.643,2.007 h 2.408 L 36.321,0.09 h 0.58 l -2.056,6.175 h -0.669 z m 1.304,2.422 1.077,3.294 1.06,-3.294 z M 38.394,0.09 h 0.498 v 5.743 h 1.738 l 0.036,0.432 H 36.674 V 5.833 h 1.72 z m 5.124,-0.099 c 0.778,0 1.267,0.333 1.648,0.765 0.498,0.549 0.751,1.278 0.751,2.35 0,0.954 -0.181,1.674 -0.525,2.214 -0.281,0.45 -0.833,1.035 -1.892,1.035 -0.869,0 -1.458,-0.414 -1.82,-0.954 -0.353,-0.522 -0.57,-1.278 -0.57,-2.214 0,-0.982 0.235,-1.774 0.642,-2.305 0.354,-0.477 0.915,-0.891 1.766,-0.891 m 0.027,0.396 c -0.679,0 -1.222,0.387 -1.458,0.801 -0.244,0.45 -0.407,1.197 -0.407,2.098 0,0.801 0.127,1.377 0.353,1.818 0.235,0.441 0.742,0.837 1.467,0.837 0.815,0 1.276,-0.468 1.494,-0.918 C 45.22,4.564 45.338,3.925 45.338,3.034 45.338,2.07 45.184,1.53 44.894,1.098 44.631,0.72 44.224,0.387 43.545,0.387 m 3.82,-0.297 h 0.507 v 2.827 c 0,0.009 0.281,0 0.281,0 0.398,0 0.625,-0.225 0.86,-0.532 0.589,-0.756 1.34,-2.034 1.458,-2.295 h 0.643 c 0,0 -0.815,1.278 -1.277,1.98 -0.326,0.496 -0.498,0.685 -0.797,0.856 h 0.064 c 1.014,0 1.693,0.612 1.693,1.647 0,0.657 -0.326,1.08 -0.607,1.305 -0.299,0.243 -0.715,0.387 -1.539,0.387 h -1.286 z m 0.517,3.151 v 2.592 h 0.787 c 0.48,0 0.779,-0.081 0.996,-0.207 0.326,-0.162 0.588,-0.567 0.588,-1.044 0,-0.513 -0.181,-0.846 -0.416,-1.035 C 49.584,3.349 49.23,3.241 48.642,3.241 Z M 52.254,0.09 h 0.498 v 6.175 h -0.498 z m 4.355,-0.099 c 0.779,0 1.267,0.333 1.648,0.765 0.498,0.549 0.751,1.278 0.751,2.35 0,0.954 -0.181,1.674 -0.525,2.214 -0.281,0.45 -0.833,1.035 -1.892,1.035 -0.869,0 -1.458,-0.414 -1.82,-0.954 -0.353,-0.522 -0.57,-1.278 -0.57,-2.214 0,-0.982 0.235,-1.774 0.643,-2.305 0.353,-0.477 0.914,-0.891 1.765,-0.891 m 0.027,0.396 c -0.679,0 -1.222,0.387 -1.457,0.801 -0.245,0.45 -0.408,1.197 -0.408,2.098 0,0.801 0.127,1.377 0.353,1.818 0.236,0.441 0.743,0.837 1.467,0.837 0.815,0 1.276,-0.468 1.494,-0.918 C 58.311,4.564 58.429,3.925 58.429,3.034 58.429,2.07 58.275,1.53 57.985,1.098 57.723,0.72 57.315,0.387 56.636,0.387"
           style="fill:#000000;fill-opacity:1;fill-rule:nonzero;stroke:none"
           id="path397" />
      </g>
      <g
         style="fill:#000000"
         id="g399"
         transform="matrix(0.35277777,0,0,-0.35277777,109.88836,162.3766)">
        <path
           d="m 0,0 c 0.021,0.046 0.062,0.076 0.122,0.091 0.041,0.007 0.076,0.014 0.106,0.02 0.031,0.006 0.051,0.014 0.062,0.022 0.011,0.008 0.017,0.022 0.017,0.042 0,0.048 -0.024,0.073 -0.072,0.073 -0.02,0 -0.064,-0.004 -0.131,-0.012 -0.066,-0.009 -0.149,-0.013 -0.248,-0.013 -0.072,0 -0.138,0.004 -0.198,0.013 -0.061,0.008 -0.103,0.012 -0.127,0.012 -0.068,0 -0.102,-0.025 -0.102,-0.073 0,-0.033 0.01,-0.053 0.028,-0.061 0.018,-0.008 0.061,-0.016 0.129,-0.023 0.084,-0.009 0.143,-0.044 0.176,-0.103 0.033,-0.06 0.05,-0.174 0.05,-0.341 v -1.923 c 0,-0.222 -0.036,-0.406 -0.108,-0.55 -0.071,-0.145 -0.165,-0.249 -0.281,-0.314 -0.117,-0.065 -0.243,-0.098 -0.379,-0.098 -0.108,0 -0.212,0.024 -0.313,0.071 -0.101,0.047 -0.184,0.121 -0.25,0.222 -0.066,0.101 -0.099,0.229 -0.099,0.384 v 2.324 c 0,0.098 0.01,0.172 0.031,0.222 0.021,0.051 0.046,0.082 0.075,0.094 0.028,0.011 0.071,0.021 0.13,0.028 0.061,0.007 0.105,0.016 0.132,0.027 0.028,0.011 0.041,0.028 0.041,0.052 0,0.027 -0.01,0.044 -0.031,0.051 -0.021,0.007 -0.056,0.011 -0.103,0.011 -0.032,0 -0.088,-0.004 -0.171,-0.012 -0.082,-0.009 -0.174,-0.013 -0.275,-0.013 -0.071,0 -0.138,0.004 -0.201,0.013 -0.062,0.008 -0.122,0.012 -0.181,0.012 -0.022,0 -0.045,-0.005 -0.067,-0.014 -0.023,-0.009 -0.035,-0.021 -0.035,-0.038 0,-0.027 0.005,-0.044 0.014,-0.052 0.009,-0.009 0.032,-0.016 0.069,-0.022 0.036,-0.006 0.089,-0.017 0.159,-0.031 0.018,-0.006 0.03,-0.022 0.035,-0.05 0.004,-0.028 0.006,-0.084 0.006,-0.167 v -2.345 c 0,-0.222 0.048,-0.4 0.143,-0.533 0.096,-0.132 0.218,-0.227 0.366,-0.283 0.149,-0.055 0.305,-0.084 0.47,-0.084 0.31,0 0.551,0.098 0.722,0.293 0.172,0.195 0.257,0.521 0.257,0.978 v 1.803 c 0,0.152 0.011,0.251 0.032,0.297 m 1.603,-1.181 c 0.057,0.077 0.13,0.138 0.22,0.183 0.09,0.045 0.183,0.068 0.28,0.068 0.14,0 0.252,-0.041 0.336,-0.122 0.084,-0.081 0.126,-0.198 0.126,-0.35 v -1.562 c 0,-0.074 -0.013,-0.124 -0.04,-0.151 C 2.499,-3.141 2.446,-3.159 2.367,-3.17 2.298,-3.181 2.263,-3.205 2.263,-3.243 c 0,-0.02 0.007,-0.035 0.02,-0.045 0.014,-0.01 0.035,-0.015 0.062,-0.015 0.004,0 0.042,0.004 0.113,0.011 0.072,0.007 0.164,0.011 0.278,0.011 0.08,0 0.146,-0.002 0.196,-0.004 0.051,-0.003 0.1,-0.007 0.149,-0.011 0.049,-0.005 0.072,-0.007 0.07,-0.007 0.053,0 0.08,0.018 0.08,0.054 0,0.026 -0.012,0.044 -0.035,0.055 -0.022,0.01 -0.068,0.018 -0.136,0.024 -0.058,0.005 -0.099,0.028 -0.122,0.068 -0.023,0.039 -0.034,0.105 -0.034,0.197 v 1.549 c -0.008,0.21 -0.073,0.369 -0.197,0.478 -0.124,0.11 -0.272,0.164 -0.444,0.164 -0.112,0 -0.214,-0.024 -0.305,-0.073 C 1.866,-0.836 1.775,-0.896 1.685,-0.967 1.596,-1.038 1.54,-1.074 1.518,-1.074 c -0.013,0 -0.021,0.015 -0.024,0.045 -0.003,0.03 -0.004,0.124 -0.004,0.283 0,0.045 -0.013,0.068 -0.038,0.068 C 1.446,-0.678 1.4,-0.712 1.314,-0.78 1.228,-0.848 1.125,-0.909 1.006,-0.963 0.935,-0.994 0.899,-1.022 0.899,-1.047 c 0,-0.018 0.007,-0.03 0.02,-0.035 0.014,-0.005 0.045,-0.01 0.093,-0.014 0.045,-10e-4 0.081,-0.007 0.107,-0.016 0.026,-0.009 0.042,-0.025 0.049,-0.047 0.008,-0.023 0.011,-0.061 0.011,-0.115 V -2.875 C 1.179,-2.949 1.174,-3.006 1.163,-3.046 1.152,-3.085 1.13,-3.114 1.098,-3.131 1.066,-3.148 1.018,-3.161 0.954,-3.17 0.903,-3.176 0.877,-3.198 0.877,-3.238 c 0,-0.043 0.034,-0.065 0.102,-0.065 0.132,0.015 0.25,0.022 0.354,0.022 0.114,0 0.194,-10e-4 0.241,-0.003 0.047,-0.002 0.087,-0.004 0.12,-0.007 0.033,-0.002 0.058,-0.005 0.075,-0.008 0.018,-0.002 0.03,-0.004 0.037,-0.004 0.052,0 0.077,0.018 0.077,0.054 0,0.026 -0.008,0.041 -0.024,0.046 C 1.842,-3.197 1.782,-3.186 1.677,-3.17 1.628,-3.161 1.592,-3.15 1.571,-3.136 1.55,-3.123 1.536,-3.103 1.529,-3.078 1.521,-3.053 1.518,-3.017 1.518,-2.97 v 1.536 c 0,0.092 0.028,0.176 0.085,0.253 M 4.102,-3.104 C 4.076,-3.132 4.012,-3.154 3.911,-3.17 3.847,-3.179 3.815,-3.204 3.815,-3.243 c 0,-0.04 0.023,-0.06 0.069,-0.06 -0.004,0 0.034,0.004 0.115,0.011 0.081,0.007 0.182,0.011 0.305,0.011 0.118,0 0.217,-0.004 0.297,-0.011 0.081,-0.007 0.125,-0.011 0.132,-0.011 0.057,0 0.086,0.018 0.086,0.054 0,0.024 -0.01,0.04 -0.028,0.049 -0.018,0.009 -0.057,0.019 -0.115,0.03 -0.088,0.018 -0.143,0.047 -0.164,0.087 -0.021,0.039 -0.032,0.106 -0.032,0.2 v 2.148 c 0,0.038 -0.015,0.057 -0.046,0.057 -0.008,0 -0.053,-0.029 -0.135,-0.087 -0.083,-0.058 -0.176,-0.105 -0.281,-0.141 -0.11,-0.042 -0.165,-0.075 -0.165,-0.1 0,-0.031 0.018,-0.05 0.053,-0.057 0.071,-0.015 0.122,-0.028 0.152,-0.042 0.03,-0.014 0.052,-0.034 0.065,-0.061 0.013,-0.027 0.019,-0.061 0.019,-0.103 V -2.91 c 0,-0.101 -0.013,-0.166 -0.04,-0.194 m 0.061,2.859 c 0.039,-0.045 0.088,-0.068 0.147,-0.068 0.064,0 0.115,0.023 0.152,0.068 C 4.5,-0.2 4.519,-0.129 4.519,-0.031 4.519,0.063 4.5,0.133 4.461,0.179 4.423,0.225 4.372,0.248 4.31,0.248 4.253,0.248 4.204,0.225 4.164,0.179 4.124,0.133 4.104,0.063 4.104,-0.031 4.104,-0.129 4.123,-0.2 4.163,-0.245 M 6.336,-2.563 C 6.33,-2.551 6.312,-2.496 6.283,-2.4 6.253,-2.303 6.228,-2.216 6.207,-2.14 6.186,-2.063 6.15,-1.93 6.098,-1.74 6.04,-1.527 5.993,-1.359 5.958,-1.235 5.923,-1.111 5.904,-1.04 5.9,-1.021 c -0.003,0.019 -0.005,0.033 -0.005,0.042 0,0.029 0.01,0.051 0.03,0.068 0.02,0.016 0.062,0.032 0.127,0.048 0.086,0.022 0.129,0.045 0.129,0.068 0,0.029 -0.007,0.048 -0.021,0.057 -0.014,0.009 -0.046,0.014 -0.097,0.014 -0.039,0 -0.093,-0.004 -0.163,-0.011 -0.069,-0.008 -0.122,-0.011 -0.156,-0.011 -0.054,0 -0.122,0.003 -0.207,0.011 -0.084,0.007 -0.134,0.011 -0.151,0.011 -0.073,0 -0.11,-0.022 -0.11,-0.065 0,-0.037 0.035,-0.061 0.105,-0.074 0.055,-0.009 0.094,-0.039 0.118,-0.09 0.024,-0.052 0.068,-0.182 0.132,-0.392 0.027,-0.081 0.064,-0.202 0.111,-0.364 0.047,-0.162 0.086,-0.296 0.117,-0.404 0.031,-0.107 0.078,-0.265 0.14,-0.475 0.063,-0.209 0.108,-0.365 0.138,-0.466 0.009,-0.03 0.022,-0.078 0.038,-0.142 0.017,-0.064 0.031,-0.105 0.044,-0.124 0.013,-0.019 0.031,-0.029 0.053,-0.029 0.022,0 0.038,0.008 0.049,0.023 0.011,0.016 0.02,0.039 0.028,0.071 0.007,0.031 0.015,0.067 0.024,0.107 0.037,0.126 0.086,0.288 0.146,0.484 0.061,0.197 0.137,0.439 0.23,0.726 0.092,0.287 0.164,0.501 0.216,0.642 0.02,0.058 0.042,0.118 0.066,0.181 0.023,0.064 0.042,0.109 0.056,0.136 0.014,0.027 0.031,0.051 0.052,0.072 0.021,0.02 0.049,0.035 0.084,0.044 0.064,0.017 0.096,0.045 0.096,0.084 0,0.036 -0.039,0.055 -0.118,0.055 -0.015,0 -0.049,-0.004 -0.104,-0.011 -0.055,-0.008 -0.105,-0.011 -0.149,-0.011 -0.038,0 -0.089,0.003 -0.151,0.011 -0.063,0.007 -0.108,0.011 -0.138,0.011 -0.075,0 -0.112,-0.024 -0.112,-0.071 0,-0.02 0.008,-0.036 0.024,-0.049 0.017,-0.012 0.033,-0.019 0.05,-0.019 0.086,-0.009 0.143,-0.017 0.17,-0.024 0.028,-0.007 0.048,-0.021 0.059,-0.041 0.012,-0.02 0.018,-0.051 0.018,-0.094 0,-0.065 -0.077,-0.328 -0.231,-0.789 C 6.617,-1.874 6.574,-2.007 6.509,-2.21 6.444,-2.413 6.407,-2.526 6.398,-2.549 6.389,-2.571 6.377,-2.582 6.362,-2.582 c -0.011,0 -0.019,0.006 -0.026,0.019 m 2.963,0.666 c 0.017,0.012 0.028,0.039 0.032,0.081 0.003,0.042 0.005,0.125 0.005,0.249 0,0.184 -0.031,0.343 -0.092,0.476 -0.062,0.132 -0.145,0.234 -0.252,0.306 -0.106,0.071 -0.228,0.107 -0.365,0.107 -0.125,0 -0.244,-0.029 -0.358,-0.087 C 8.155,-0.823 8.054,-0.91 7.964,-1.026 7.874,-1.143 7.802,-1.29 7.749,-1.468 7.696,-1.646 7.67,-1.848 7.67,-2.073 c 0,-0.385 0.087,-0.694 0.262,-0.926 0.175,-0.233 0.414,-0.35 0.717,-0.35 0.143,0 0.267,0.031 0.372,0.092 0.106,0.062 0.186,0.144 0.242,0.248 0.056,0.104 0.084,0.216 0.084,0.337 0,0.045 -0.013,0.068 -0.038,0.068 -0.013,0 -0.023,-0.005 -0.029,-0.015 C 9.273,-2.629 9.263,-2.652 9.248,-2.689 9.233,-2.726 9.218,-2.761 9.201,-2.794 9.091,-3.009 8.925,-3.116 8.704,-3.116 c -0.131,0 -0.246,0.045 -0.347,0.135 -0.101,0.091 -0.179,0.22 -0.234,0.388 -0.055,0.168 -0.082,0.36 -0.082,0.577 0,0.066 0.043,0.1 0.129,0.1 h 1.031 c 0.048,0 0.08,0.006 0.098,0.019 m -1.176,0.681 c 0.048,0.123 0.113,0.221 0.196,0.292 0.082,0.072 0.173,0.107 0.272,0.107 0.13,0 0.234,-0.053 0.312,-0.161 0.078,-0.108 0.117,-0.258 0.117,-0.45 0,-0.13 -0.025,-0.213 -0.074,-0.25 C 8.92,-1.698 8.848,-1.716 8.73,-1.732 8.611,-1.748 8.468,-1.756 8.299,-1.756 c -0.113,0 -0.183,0.007 -0.209,0.021 -0.025,0.015 -0.038,0.048 -0.038,0.101 0,0.156 0.024,0.295 0.071,0.418 m 2.174,-1.845 c -0.009,-0.038 -0.025,-0.064 -0.048,-0.077 -0.023,-0.012 -0.065,-0.023 -0.125,-0.032 -0.076,-0.011 -0.115,-0.034 -0.119,-0.068 0,-0.043 0.036,-0.065 0.108,-0.065 -0.006,0 0.027,0.004 0.099,0.011 0.071,0.007 0.158,0.011 0.261,0.011 0.137,0 0.246,-0.004 0.327,-0.011 0.081,-0.007 0.116,-0.011 0.107,-0.011 0.052,0 0.086,0.004 0.103,0.012 0.018,0.008 0.027,0.024 0.027,0.048 0,0.018 -0.013,0.031 -0.039,0.04 -0.026,0.009 -0.075,0.02 -0.148,0.033 -0.066,0.011 -0.112,0.027 -0.138,0.05 -0.026,0.022 -0.043,0.054 -0.051,0.096 -0.008,0.041 -0.012,0.113 -0.012,0.214 v 1.163 c 0,0.117 0.031,0.262 0.095,0.434 0.063,0.172 0.148,0.258 0.254,0.258 0.037,0 0.055,-0.06 0.055,-0.181 0,-0.152 0.066,-0.228 0.198,-0.228 0.072,0 0.124,0.029 0.158,0.086 0.034,0.057 0.051,0.132 0.051,0.224 0,0.116 -0.026,0.208 -0.077,0.275 -0.051,0.067 -0.124,0.101 -0.217,0.101 -0.088,0 -0.162,-0.023 -0.223,-0.069 -0.06,-0.045 -0.105,-0.091 -0.133,-0.137 -0.029,-0.046 -0.061,-0.105 -0.097,-0.176 -0.035,-0.071 -0.063,-0.106 -0.083,-0.106 -0.015,0 -0.022,0.053 -0.022,0.158 0,0.22 -0.017,0.33 -0.05,0.33 -0.022,0 -0.04,-0.008 -0.054,-0.022 C 10.491,-0.715 10.46,-0.751 10.412,-0.81 10.377,-0.846 10.34,-0.876 10.3,-0.9 10.259,-0.925 10.214,-0.946 10.163,-0.963 10.113,-0.98 10.079,-0.995 10.06,-1.007 10.042,-1.02 10.033,-1.039 10.033,-1.064 c 0,-0.029 0.019,-0.043 0.058,-0.043 0.084,0 0.142,-0.016 0.173,-0.048 0.031,-0.031 0.047,-0.097 0.047,-0.196 v -1.513 c 0,-0.092 -0.005,-0.158 -0.014,-0.197 m 1.764,1.269 c 0.091,-0.105 0.223,-0.21 0.397,-0.315 0.174,-0.105 0.303,-0.201 0.389,-0.288 0.086,-0.088 0.129,-0.211 0.129,-0.369 0,-0.134 -0.039,-0.242 -0.118,-0.324 -0.078,-0.082 -0.183,-0.123 -0.315,-0.123 -0.19,0 -0.328,0.131 -0.414,0.393 -0.019,0.056 -0.037,0.116 -0.056,0.18 -0.02,0.064 -0.033,0.104 -0.042,0.119 -0.008,0.016 -0.021,0.023 -0.039,0.023 -0.022,0 -0.038,-0.022 -0.047,-0.068 -0.009,-0.045 -0.014,-0.132 -0.014,-0.26 0,-0.187 0.006,-0.308 0.017,-0.362 0.011,-0.054 0.032,-0.086 0.063,-0.095 0.156,-0.045 0.303,-0.068 0.443,-0.068 0.258,0 0.463,0.071 0.613,0.212 0.15,0.141 0.226,0.337 0.226,0.588 0,0.177 -0.05,0.324 -0.148,0.441 -0.098,0.116 -0.24,0.233 -0.427,0.351 -0.187,0.117 -0.319,0.21 -0.396,0.278 -0.077,0.067 -0.116,0.161 -0.116,0.28 0,0.107 0.04,0.197 0.121,0.271 0.08,0.074 0.181,0.111 0.301,0.111 0.141,0 0.248,-0.086 0.321,-0.26 0.022,-0.057 0.041,-0.113 0.058,-0.166 0.017,-0.053 0.03,-0.089 0.04,-0.107 0.01,-0.018 0.025,-0.027 0.043,-0.027 0.026,0 0.042,0.02 0.047,0.062 0.006,0.041 0.008,0.119 0.008,0.232 0,0.194 -0.011,0.298 -0.032,0.31 -0.12,0.063 -0.261,0.095 -0.424,0.095 -0.205,0 -0.383,-0.057 -0.535,-0.17 -0.152,-0.112 -0.228,-0.281 -0.228,-0.507 0,-0.186 0.045,-0.331 0.135,-0.437 m 2.144,-1.312 c -0.026,-0.028 -0.09,-0.05 -0.191,-0.066 -0.064,-0.009 -0.096,-0.034 -0.096,-0.073 0,-0.04 0.023,-0.06 0.068,-0.06 -0.003,0 0.035,0.004 0.116,0.011 0.081,0.007 0.182,0.011 0.305,0.011 0.118,0 0.217,-0.004 0.297,-0.011 0.081,-0.007 0.125,-0.011 0.132,-0.011 0.057,0 0.085,0.018 0.085,0.054 0,0.024 -0.009,0.04 -0.027,0.049 -0.018,0.009 -0.057,0.019 -0.116,0.03 -0.088,0.018 -0.142,0.047 -0.163,0.087 -0.021,0.039 -0.032,0.106 -0.032,0.2 v 2.148 c 0,0.038 -0.015,0.057 -0.047,0.057 -0.007,0 -0.052,-0.029 -0.134,-0.087 -0.083,-0.058 -0.176,-0.105 -0.281,-0.141 -0.11,-0.042 -0.165,-0.075 -0.165,-0.1 0,-0.031 0.018,-0.05 0.052,-0.057 0.072,-0.015 0.123,-0.028 0.153,-0.042 0.03,-0.014 0.052,-0.034 0.065,-0.061 0.013,-0.027 0.019,-0.061 0.019,-0.103 V -2.91 c 0,-0.101 -0.013,-0.166 -0.04,-0.194 m 0.061,2.859 c 0.039,-0.045 0.088,-0.068 0.147,-0.068 0.064,0 0.115,0.023 0.152,0.068 0.038,0.045 0.057,0.116 0.057,0.214 0,0.094 -0.02,0.164 -0.058,0.21 -0.039,0.046 -0.089,0.069 -0.151,0.069 -0.057,0 -0.106,-0.023 -0.146,-0.069 -0.04,-0.046 -0.061,-0.116 -0.061,-0.21 0,-0.098 0.02,-0.169 0.06,-0.214 m 2.645,-0.599 c -0.009,0 -0.037,0.017 -0.083,0.05 -0.046,0.032 -0.096,0.06 -0.15,0.082 -0.054,0.022 -0.121,0.034 -0.202,0.034 -0.189,0 -0.355,-0.064 -0.499,-0.191 -0.144,-0.128 -0.255,-0.297 -0.334,-0.508 -0.079,-0.211 -0.118,-0.434 -0.118,-0.666 0,-0.26 0.031,-0.489 0.093,-0.686 0.063,-0.196 0.157,-0.349 0.283,-0.457 0.127,-0.109 0.286,-0.163 0.479,-0.163 0.119,0 0.214,0.02 0.285,0.06 0.07,0.039 0.129,0.086 0.177,0.139 0.048,0.053 0.076,0.08 0.085,0.08 0.013,0 0.023,-0.006 0.029,-0.019 0.006,-0.013 0.01,-0.027 0.01,-0.043 l 0.022,-0.133 c 0.011,-0.056 0.041,-0.084 0.09,-0.084 0.037,0 0.131,0.034 0.281,0.1 0.084,0.038 0.138,0.064 0.162,0.079 0.024,0.014 0.041,0.037 0.052,0.068 0.011,0.03 0.017,0.08 0.017,0.149 0,0.077 -0.017,0.116 -0.05,0.116 -0.016,0 -0.038,-0.03 -0.064,-0.089 -0.027,-0.06 -0.051,-0.104 -0.072,-0.133 -0.021,-0.029 -0.051,-0.043 -0.089,-0.043 -0.029,0 -0.044,0.071 -0.044,0.214 v 3.496 c 0,0.051 -0.01,0.076 -0.03,0.076 -0.013,0 -0.058,-0.02 -0.135,-0.06 C 17.029,0.585 16.903,0.534 16.729,0.473 16.698,0.462 16.677,0.452 16.666,0.443 16.655,0.434 16.649,0.421 16.649,0.403 c 0,-0.031 0.04,-0.054 0.119,-0.068 0.066,-0.011 0.11,-0.026 0.132,-0.045 0.022,-0.018 0.033,-0.05 0.033,-0.093 v -1.014 c 0,-0.018 -0.008,-0.027 -0.022,-0.027 M 16.797,-3.04 c -0.091,-0.065 -0.196,-0.098 -0.315,-0.098 -0.097,0 -0.183,0.025 -0.257,0.074 -0.075,0.048 -0.136,0.122 -0.185,0.221 -0.048,0.098 -0.084,0.223 -0.108,0.374 -0.024,0.151 -0.036,0.32 -0.036,0.508 0,0.392 0.06,0.681 0.179,0.866 0.119,0.186 0.253,0.278 0.401,0.278 0.09,0 0.17,-0.024 0.239,-0.071 0.07,-0.048 0.124,-0.113 0.161,-0.196 0.038,-0.082 0.057,-0.177 0.057,-0.286 v -1.383 c 0,-0.126 -0.046,-0.222 -0.136,-0.287 m 2.921,2.28 c -0.061,0.054 -0.176,0.082 -0.345,0.082 -0.141,0 -0.282,-0.026 -0.421,-0.078 -0.139,-0.051 -0.264,-0.125 -0.374,-0.223 -0.214,-0.192 -0.322,-0.374 -0.322,-0.543 0,-0.045 0.009,-0.077 0.027,-0.095 0.017,-0.018 0.048,-0.027 0.092,-0.027 0.088,0 0.161,0.028 0.218,0.083 0.058,0.055 0.098,0.124 0.12,0.208 0.049,0.173 0.114,0.306 0.192,0.398 0.079,0.092 0.189,0.138 0.33,0.138 0.087,0 0.148,-0.027 0.183,-0.081 0.036,-0.054 0.054,-0.154 0.054,-0.301 v -0.322 c 0,-0.048 -0.008,-0.087 -0.023,-0.118 -0.016,-0.032 -0.044,-0.066 -0.086,-0.103 -0.041,-0.038 -0.096,-0.08 -0.165,-0.129 -0.068,-0.049 -0.178,-0.127 -0.328,-0.233 -0.228,-0.163 -0.383,-0.296 -0.466,-0.4 -0.084,-0.104 -0.126,-0.22 -0.126,-0.349 0,-0.155 0.039,-0.277 0.117,-0.364 0.078,-0.088 0.177,-0.132 0.296,-0.132 0.106,0 0.203,0.019 0.29,0.057 0.087,0.038 0.154,0.076 0.201,0.115 0.047,0.039 0.101,0.089 0.162,0.149 0.061,0.061 0.1,0.091 0.117,0.091 0.018,0 0.039,-0.038 0.062,-0.114 0.023,-0.076 0.054,-0.14 0.095,-0.194 0.04,-0.053 0.108,-0.079 0.203,-0.079 0.099,0 0.183,0.028 0.25,0.083 0.068,0.056 0.119,0.121 0.152,0.193 0.033,0.072 0.049,0.132 0.049,0.179 0,0.05 -0.014,0.075 -0.044,0.075 -0.022,0 -0.044,-0.028 -0.066,-0.084 -0.022,-0.056 -0.044,-0.098 -0.067,-0.127 -0.023,-0.029 -0.065,-0.043 -0.125,-0.043 -0.048,0 -0.086,0.022 -0.116,0.066 -0.029,0.044 -0.044,0.091 -0.044,0.14 v 1.774 c 0,0.151 -0.031,0.254 -0.092,0.308 m -0.282,-1.999 c -0.024,-0.05 -0.068,-0.104 -0.132,-0.162 -0.137,-0.13 -0.261,-0.195 -0.371,-0.195 -0.084,0 -0.153,0.028 -0.205,0.084 -0.052,0.056 -0.078,0.139 -0.078,0.25 0,0.15 0.056,0.292 0.169,0.428 0.113,0.136 0.269,0.271 0.469,0.407 0.071,0.047 0.118,0.07 0.14,0.07 0.029,0 0.044,-0.026 0.044,-0.078 v -0.616 c 0,-0.076 -0.012,-0.139 -0.036,-0.188 m 2.647,1.915 c -0.01,0 -0.037,0.017 -0.083,0.05 -0.046,0.032 -0.096,0.06 -0.15,0.082 -0.054,0.022 -0.121,0.034 -0.202,0.034 -0.189,0 -0.355,-0.064 -0.499,-0.191 -0.144,-0.128 -0.255,-0.297 -0.334,-0.508 -0.079,-0.211 -0.118,-0.434 -0.118,-0.666 0,-0.26 0.031,-0.489 0.093,-0.686 0.062,-0.196 0.157,-0.349 0.283,-0.457 0.127,-0.109 0.286,-0.163 0.479,-0.163 0.119,0 0.214,0.02 0.285,0.06 0.07,0.039 0.129,0.086 0.177,0.139 0.048,0.053 0.076,0.08 0.085,0.08 0.013,0 0.023,-0.006 0.029,-0.019 0.006,-0.013 0.01,-0.027 0.01,-0.043 l 0.022,-0.133 c 0.011,-0.056 0.041,-0.084 0.09,-0.084 0.037,0 0.131,0.034 0.281,0.1 0.084,0.038 0.138,0.064 0.162,0.079 0.024,0.014 0.041,0.037 0.052,0.068 0.011,0.03 0.017,0.08 0.017,0.149 0,0.077 -0.017,0.116 -0.05,0.116 -0.016,0 -0.038,-0.03 -0.064,-0.089 -0.027,-0.06 -0.051,-0.104 -0.072,-0.133 -0.021,-0.029 -0.051,-0.043 -0.089,-0.043 -0.029,0 -0.044,0.071 -0.044,0.214 v 3.496 c 0,0.051 -0.01,0.076 -0.03,0.076 -0.013,0 -0.058,-0.02 -0.135,-0.06 C 22.201,0.585 22.075,0.534 21.901,0.473 21.87,0.462 21.849,0.452 21.838,0.443 21.827,0.434 21.821,0.421 21.821,0.403 c 0,-0.031 0.04,-0.054 0.119,-0.068 0.066,-0.011 0.11,-0.026 0.132,-0.045 0.022,-0.018 0.033,-0.05 0.033,-0.093 v -1.014 c 0,-0.018 -0.008,-0.027 -0.022,-0.027 M 21.969,-3.04 c -0.091,-0.065 -0.196,-0.098 -0.315,-0.098 -0.098,0 -0.183,0.025 -0.257,0.074 -0.075,0.048 -0.136,0.122 -0.185,0.221 -0.048,0.098 -0.085,0.223 -0.108,0.374 -0.024,0.151 -0.036,0.32 -0.036,0.508 0,0.392 0.059,0.681 0.179,0.866 0.119,0.186 0.253,0.278 0.401,0.278 0.09,0 0.17,-0.024 0.239,-0.071 0.07,-0.048 0.124,-0.113 0.161,-0.196 0.038,-0.082 0.057,-0.177 0.057,-0.286 v -1.383 c 0,-0.126 -0.046,-0.222 -0.136,-0.287 m 4.146,0.952 c 0.021,-0.034 0.047,-0.11 0.078,-0.229 0.119,-0.455 0.179,-0.693 0.179,-0.715 0,-0.092 -0.049,-0.138 -0.146,-0.138 -0.097,0 -0.146,-0.024 -0.146,-0.073 0,-0.04 0.032,-0.06 0.097,-0.06 0.034,0 0.097,0.004 0.187,0.011 0.089,0.007 0.16,0.011 0.211,0.011 0.046,0 0.105,-0.004 0.176,-0.011 0.072,-0.007 0.128,-0.011 0.168,-0.011 0.079,0 0.118,0.015 0.118,0.044 0,0.016 -0.007,0.029 -0.022,0.039 -0.014,0.01 -0.038,0.019 -0.071,0.028 -0.033,0.009 -0.058,0.016 -0.074,0.022 -0.059,0.02 -0.107,0.094 -0.143,0.222 -0.068,0.251 -0.15,0.545 -0.245,0.883 -0.095,0.337 -0.177,0.629 -0.246,0.873 -0.069,0.245 -0.139,0.494 -0.211,0.746 -0.071,0.253 -0.13,0.462 -0.176,0.626 -0.014,0.056 -0.027,0.092 -0.038,0.108 -0.011,0.017 -0.03,0.025 -0.058,0.025 -0.024,0 -0.042,-0.01 -0.053,-0.029 -0.012,-0.019 -0.03,-0.064 -0.054,-0.136 -0.048,-0.177 -0.11,-0.416 -0.186,-0.715 -0.076,-0.3 -0.157,-0.616 -0.244,-0.948 -0.088,-0.333 -0.162,-0.611 -0.225,-0.834 -0.062,-0.224 -0.134,-0.459 -0.217,-0.705 -0.009,-0.03 -0.025,-0.054 -0.048,-0.07 -0.023,-0.016 -0.051,-0.03 -0.084,-0.041 -0.033,-0.011 -0.056,-0.02 -0.069,-0.029 -0.012,-0.01 -0.019,-0.026 -0.019,-0.049 0,-0.04 0.02,-0.06 0.061,-0.06 -0.008,0 0.018,0.004 0.077,0.011 0.058,0.007 0.138,0.011 0.239,0.011 0.046,0 0.107,-0.004 0.184,-0.011 0.077,-0.007 0.13,-0.011 0.16,-0.011 0.033,0 0.057,0.005 0.073,0.014 0.015,0.009 0.023,0.024 0.023,0.046 0,0.025 -0.01,0.041 -0.03,0.049 -0.021,0.007 -0.071,0.017 -0.152,0.029 -0.108,0.017 -0.162,0.066 -0.162,0.149 0,0.027 0.003,0.059 0.008,0.094 0.006,0.035 0.021,0.103 0.044,0.203 0.024,0.1 0.055,0.23 0.094,0.391 0.035,0.134 0.063,0.215 0.084,0.245 0.021,0.03 0.055,0.045 0.103,0.045 h 0.646 c 0.051,0 0.088,-0.017 0.109,-0.05 m -0.373,1.401 c 0.053,-0.204 0.092,-0.35 0.116,-0.44 0.023,-0.089 0.056,-0.208 0.099,-0.356 0.042,-0.148 0.068,-0.243 0.079,-0.286 0.011,-0.042 0.017,-0.071 0.017,-0.088 0,-0.018 -0.007,-0.029 -0.019,-0.035 -0.013,-0.005 -0.044,-0.009 -0.094,-0.011 -0.049,-10e-4 -0.147,-0.002 -0.294,-0.002 -0.149,0 -0.242,0.002 -0.281,0.006 -0.038,0.005 -0.057,0.017 -0.057,0.037 0,0.011 0.011,0.061 0.033,0.15 0.022,0.09 0.101,0.408 0.239,0.955 0.02,0.079 0.034,0.13 0.043,0.15 0.008,0.021 0.021,0.031 0.039,0.031 0.035,0 0.062,-0.037 0.08,-0.111 m 2.234,-0.07 c -0.009,0.022 -0.035,0.033 -0.077,0.033 h -0.432 c -0.078,0 -0.118,-0.029 -0.118,-0.084 0,-0.026 0.011,-0.043 0.032,-0.053 0.021,-0.01 0.059,-0.018 0.114,-0.023 0.062,-0.006 0.104,-0.021 0.125,-0.045 0.021,-0.024 0.032,-0.065 0.032,-0.123 V -2.71 c 0.007,-0.222 0.07,-0.378 0.189,-0.468 0.12,-0.091 0.271,-0.136 0.454,-0.136 0.13,0 0.24,0.024 0.33,0.071 0.09,0.047 0.175,0.105 0.254,0.174 0.08,0.07 0.129,0.105 0.148,0.105 0.018,0 0.029,-0.01 0.033,-0.03 0.003,-0.02 0.005,-0.084 0.005,-0.192 0,-0.109 0.014,-0.163 0.041,-0.163 0.006,0 0.056,0.021 0.15,0.064 0.095,0.042 0.192,0.082 0.293,0.12 0.072,0.026 0.107,0.054 0.107,0.084 0,0.022 -0.01,0.037 -0.03,0.045 -0.02,0.008 -0.06,0.015 -0.121,0.02 -0.053,0.009 -0.088,0.031 -0.104,0.065 -0.017,0.035 -0.025,0.102 -0.025,0.203 v 1.891 c 0,0.059 -0.007,0.096 -0.019,0.111 -0.013,0.014 -0.035,0.022 -0.066,0.022 H 28.79 c -0.064,0 -0.096,-0.027 -0.096,-0.079 0,-0.018 0.003,-0.032 0.009,-0.041 0.007,-0.009 0.017,-0.015 0.032,-0.02 0.015,-0.004 0.039,-0.009 0.073,-0.012 0.034,-0.004 0.058,-0.007 0.073,-0.008 0.068,-0.008 0.111,-0.024 0.129,-0.05 0.018,-0.027 0.028,-0.075 0.028,-0.145 v -1.52 c 0,-0.133 -0.061,-0.251 -0.182,-0.352 -0.121,-0.101 -0.256,-0.151 -0.404,-0.151 -0.136,0 -0.247,0.042 -0.333,0.127 -0.086,0.085 -0.129,0.199 -0.129,0.344 v 1.684 c 0,0.105 -0.005,0.168 -0.014,0.19 m 2.414,-1.035 c 0.09,-0.105 0.222,-0.21 0.396,-0.315 0.174,-0.105 0.304,-0.201 0.39,-0.288 0.086,-0.088 0.129,-0.211 0.129,-0.369 0,-0.134 -0.04,-0.242 -0.118,-0.324 -0.079,-0.082 -0.184,-0.123 -0.316,-0.123 -0.19,0 -0.328,0.131 -0.414,0.393 -0.018,0.056 -0.037,0.116 -0.056,0.18 -0.019,0.064 -0.033,0.104 -0.041,0.119 -0.009,0.016 -0.022,0.023 -0.04,0.023 -0.022,0 -0.038,-0.022 -0.047,-0.068 -0.009,-0.045 -0.013,-0.132 -0.013,-0.26 0,-0.187 0.005,-0.308 0.016,-0.362 0.011,-0.054 0.032,-0.086 0.063,-0.095 0.156,-0.045 0.304,-0.068 0.443,-0.068 0.259,0 0.463,0.071 0.613,0.212 0.151,0.141 0.226,0.337 0.226,0.588 0,0.177 -0.049,0.324 -0.147,0.441 -0.098,0.116 -0.241,0.233 -0.428,0.351 -0.187,0.117 -0.319,0.21 -0.396,0.278 -0.077,0.067 -0.115,0.161 -0.115,0.28 0,0.107 0.04,0.197 0.12,0.271 0.081,0.074 0.181,0.111 0.302,0.111 0.14,0 0.247,-0.086 0.32,-0.26 0.022,-0.057 0.042,-0.113 0.058,-0.166 0.017,-0.053 0.03,-0.089 0.04,-0.107 0.011,-0.018 0.025,-0.027 0.043,-0.027 0.026,0 0.042,0.02 0.047,0.062 0.006,0.041 0.009,0.119 0.009,0.232 0,0.194 -0.011,0.298 -0.033,0.31 -0.119,0.063 -0.26,0.095 -0.423,0.095 -0.205,0 -0.384,-0.057 -0.536,-0.17 -0.152,-0.112 -0.228,-0.281 -0.228,-0.507 0,-0.186 0.045,-0.331 0.136,-0.437 m 2.451,0.832 c 0.011,0.012 0.03,0.019 0.06,0.019 h 0.253 c 0.056,0 0.096,0.008 0.118,0.024 0.022,0.016 0.033,0.044 0.033,0.081 0,0.035 -0.011,0.058 -0.032,0.071 -0.021,0.012 -0.057,0.019 -0.108,0.019 h -0.226 c -0.042,0 -0.071,0.009 -0.088,0.028 -0.016,0.019 -0.025,0.05 -0.025,0.094 v 0.498 c 0,0.094 -0.016,0.141 -0.049,0.141 -0.017,0 -0.032,-0.014 -0.047,-0.041 -0.015,-0.027 -0.031,-0.058 -0.049,-0.095 -0.09,-0.167 -0.163,-0.29 -0.219,-0.368 -0.056,-0.078 -0.111,-0.149 -0.164,-0.215 -0.053,-0.066 -0.079,-0.108 -0.079,-0.126 0,-0.029 0.006,-0.047 0.02,-0.054 0.014,-0.008 0.037,-0.011 0.07,-0.011 0.057,0 0.101,-0.005 0.132,-0.015 0.031,-0.01 0.047,-0.035 0.047,-0.074 v -1.88 c 0,-0.323 0.139,-0.485 0.418,-0.485 0.086,0 0.158,0.012 0.215,0.037 0.056,0.024 0.103,0.068 0.14,0.131 0.036,0.063 0.067,0.13 0.092,0.202 0.025,0.071 0.037,0.12 0.037,0.147 0,0.029 -0.017,0.044 -0.052,0.044 -0.022,0 -0.053,-0.035 -0.092,-0.106 -0.04,-0.07 -0.076,-0.125 -0.109,-0.164 -0.033,-0.039 -0.081,-0.058 -0.143,-0.058 -0.055,0 -0.097,0.016 -0.125,0.047 -0.028,0.032 -0.043,0.092 -0.043,0.181 v 1.847 c 0,0.041 0.005,0.068 0.015,0.081 m 1.348,-2.101 C 34.179,-3.099 34.163,-3.125 34.14,-3.138 34.117,-3.15 34.076,-3.161 34.015,-3.17 33.94,-3.181 33.901,-3.204 33.897,-3.238 c 0,-0.043 0.036,-0.065 0.107,-0.065 -0.005,0 0.028,0.004 0.099,0.011 0.072,0.007 0.159,0.011 0.262,0.011 0.137,0 0.246,-0.004 0.327,-0.011 0.08,-0.007 0.116,-0.011 0.107,-0.011 0.051,0 0.086,0.004 0.103,0.012 0.018,0.008 0.026,0.024 0.026,0.048 0,0.018 -0.013,0.031 -0.038,0.04 -0.026,0.009 -0.075,0.02 -0.149,0.033 -0.066,0.011 -0.112,0.027 -0.137,0.05 -0.026,0.022 -0.043,0.054 -0.051,0.096 -0.008,0.041 -0.012,0.113 -0.012,0.214 v 1.163 c 0,0.117 0.031,0.262 0.094,0.434 0.064,0.172 0.148,0.258 0.255,0.258 0.036,0 0.055,-0.06 0.055,-0.181 0,-0.152 0.066,-0.228 0.198,-0.228 0.071,0 0.124,0.029 0.158,0.086 0.034,0.057 0.051,0.132 0.051,0.224 0,0.116 -0.026,0.208 -0.077,0.275 -0.052,0.067 -0.124,0.101 -0.217,0.101 -0.088,0 -0.163,-0.023 -0.223,-0.069 -0.061,-0.045 -0.105,-0.091 -0.134,-0.137 -0.028,-0.046 -0.06,-0.105 -0.096,-0.176 -0.036,-0.071 -0.064,-0.106 -0.084,-0.106 -0.014,0 -0.022,0.053 -0.022,0.158 0,0.22 -0.016,0.33 -0.049,0.33 -0.022,0 -0.04,-0.008 -0.054,-0.022 -0.014,-0.015 -0.044,-0.051 -0.092,-0.11 -0.035,-0.036 -0.072,-0.066 -0.113,-0.09 -0.04,-0.025 -0.085,-0.046 -0.136,-0.063 -0.05,-0.017 -0.085,-0.032 -0.103,-0.044 -0.018,-0.013 -0.027,-0.032 -0.027,-0.057 0,-0.029 0.019,-0.043 0.057,-0.043 0.085,0 0.142,-0.016 0.174,-0.048 0.031,-0.031 0.046,-0.097 0.046,-0.196 v -1.513 c 0,-0.092 -0.004,-0.158 -0.013,-0.197 m 3.23,2.301 c -0.061,0.054 -0.176,0.082 -0.345,0.082 -0.141,0 -0.281,-0.026 -0.42,-0.078 -0.14,-0.051 -0.264,-0.125 -0.374,-0.223 -0.215,-0.192 -0.322,-0.374 -0.322,-0.543 0,-0.045 0.008,-0.077 0.026,-0.095 0.017,-0.018 0.048,-0.027 0.092,-0.027 0.088,0 0.161,0.028 0.219,0.083 0.057,0.055 0.097,0.124 0.119,0.208 0.05,0.173 0.114,0.306 0.193,0.398 0.079,0.092 0.189,0.138 0.33,0.138 0.086,0 0.147,-0.027 0.183,-0.081 0.035,-0.054 0.053,-0.154 0.053,-0.301 v -0.322 c 0,-0.048 -0.008,-0.087 -0.023,-0.118 -0.016,-0.032 -0.044,-0.066 -0.085,-0.103 -0.042,-0.038 -0.097,-0.08 -0.165,-0.129 -0.069,-0.049 -0.179,-0.127 -0.329,-0.233 -0.227,-0.163 -0.383,-0.296 -0.466,-0.4 -0.084,-0.104 -0.125,-0.22 -0.125,-0.349 0,-0.155 0.039,-0.277 0.117,-0.364 0.078,-0.088 0.176,-0.132 0.295,-0.132 0.107,0 0.203,0.019 0.29,0.057 0.087,0.038 0.154,0.076 0.201,0.115 0.047,0.039 0.101,0.089 0.162,0.149 0.062,0.061 0.101,0.091 0.117,0.091 0.019,0 0.039,-0.038 0.062,-0.114 0.023,-0.076 0.055,-0.14 0.095,-0.194 0.04,-0.053 0.108,-0.079 0.204,-0.079 0.099,0 0.182,0.028 0.25,0.083 0.068,0.056 0.118,0.121 0.151,0.193 0.033,0.072 0.05,0.132 0.05,0.179 0,0.05 -0.015,0.075 -0.044,0.075 -0.022,0 -0.044,-0.028 -0.066,-0.084 -0.022,-0.056 -0.045,-0.098 -0.068,-0.127 -0.023,-0.029 -0.064,-0.043 -0.125,-0.043 -0.048,0 -0.086,0.022 -0.115,0.066 -0.03,0.044 -0.044,0.091 -0.044,0.14 v 1.774 c 0,0.151 -0.031,0.254 -0.093,0.308 m -0.281,-1.999 c -0.024,-0.05 -0.068,-0.104 -0.132,-0.162 -0.138,-0.13 -0.262,-0.195 -0.372,-0.195 -0.084,0 -0.152,0.028 -0.205,0.084 -0.052,0.056 -0.078,0.139 -0.078,0.25 0,0.15 0.056,0.292 0.169,0.428 0.113,0.136 0.269,0.271 0.469,0.407 0.072,0.047 0.118,0.07 0.14,0.07 0.03,0 0.044,-0.026 0.044,-0.078 v -0.616 c 0,-0.076 -0.012,-0.139 -0.035,-0.188 m 1.582,-0.343 c -0.03,-0.033 -0.094,-0.056 -0.193,-0.068 -0.025,-0.004 -0.047,-0.012 -0.064,-0.024 -0.018,-0.013 -0.026,-0.028 -0.026,-0.044 0,-0.043 0.022,-0.065 0.068,-0.065 -0.003,0 0.037,0.004 0.121,0.011 0.085,0.007 0.188,0.011 0.311,0.011 0.092,0 0.164,-10e-4 0.216,-0.003 0.052,-0.002 0.105,-0.005 0.159,-0.011 0.054,-0.005 0.083,-0.008 0.087,-0.008 0.042,0 0.063,0.022 0.063,0.065 0,0.02 -0.006,0.033 -0.018,0.039 -0.012,0.007 -0.041,0.016 -0.089,0.029 -0.082,0.022 -0.138,0.037 -0.165,0.046 -0.027,0.009 -0.049,0.025 -0.065,0.047 -0.015,0.023 -0.023,0.057 -0.023,0.102 v 3.583 c 0,0.051 -0.009,0.076 -0.027,0.076 -0.015,0 -0.061,-0.02 -0.138,-0.06 C 38.86,0.585 38.734,0.534 38.56,0.473 38.529,0.462 38.508,0.452 38.497,0.443 38.486,0.434 38.481,0.42 38.481,0.402 c 0,-0.031 0.039,-0.053 0.118,-0.068 0.066,-0.01 0.11,-0.025 0.132,-0.044 0.022,-0.019 0.033,-0.05 0.033,-0.094 v -3.128 c 0,-0.081 -0.015,-0.138 -0.044,-0.17 m 4.195,2.258 c -0.009,0 -0.036,0.017 -0.082,0.05 -0.046,0.032 -0.096,0.06 -0.15,0.082 -0.054,0.022 -0.121,0.034 -0.202,0.034 -0.189,0 -0.355,-0.064 -0.499,-0.191 -0.144,-0.128 -0.255,-0.297 -0.334,-0.508 -0.079,-0.211 -0.119,-0.434 -0.119,-0.666 0,-0.26 0.032,-0.489 0.094,-0.686 0.062,-0.196 0.157,-0.349 0.283,-0.457 0.127,-0.109 0.286,-0.163 0.479,-0.163 0.119,0 0.214,0.02 0.284,0.06 0.071,0.039 0.13,0.086 0.178,0.139 0.047,0.053 0.076,0.08 0.085,0.08 0.013,0 0.022,-0.006 0.029,-0.019 0.006,-0.013 0.009,-0.027 0.009,-0.043 l 0.022,-0.133 c 0.011,-0.056 0.042,-0.084 0.091,-0.084 0.037,0 0.13,0.034 0.281,0.1 0.084,0.038 0.138,0.064 0.162,0.079 0.024,0.014 0.041,0.037 0.052,0.068 0.011,0.03 0.017,0.08 0.017,0.149 0,0.077 -0.017,0.116 -0.05,0.116 -0.016,0 -0.038,-0.03 -0.064,-0.089 -0.027,-0.06 -0.051,-0.104 -0.072,-0.133 -0.021,-0.029 -0.051,-0.043 -0.089,-0.043 -0.03,0 -0.044,0.071 -0.044,0.214 v 3.496 c 0,0.051 -0.01,0.076 -0.031,0.076 -0.012,0 -0.057,-0.02 -0.134,-0.06 C 43.034,0.585 42.908,0.534 42.734,0.473 42.703,0.462 42.682,0.452 42.671,0.443 42.66,0.434 42.654,0.421 42.654,0.403 c 0,-0.031 0.04,-0.054 0.118,-0.068 0.066,-0.011 0.11,-0.026 0.132,-0.045 0.022,-0.018 0.033,-0.05 0.033,-0.093 v -1.014 c 0,-0.018 -0.007,-0.027 -0.022,-0.027 M 42.801,-3.04 c -0.09,-0.065 -0.195,-0.098 -0.315,-0.098 -0.097,0 -0.182,0.025 -0.257,0.074 -0.074,0.048 -0.135,0.122 -0.184,0.221 -0.049,0.098 -0.085,0.223 -0.109,0.374 -0.023,0.151 -0.035,0.32 -0.035,0.508 0,0.392 0.059,0.681 0.178,0.866 0.12,0.186 0.253,0.278 0.402,0.278 0.09,0 0.17,-0.024 0.239,-0.071 0.07,-0.048 0.124,-0.113 0.161,-0.196 0.038,-0.082 0.056,-0.177 0.056,-0.286 v -1.383 c 0,-0.126 -0.045,-0.222 -0.136,-0.287 m 2.922,1.143 c 0.017,0.012 0.028,0.039 0.031,0.081 0.004,0.042 0.006,0.125 0.006,0.249 0,0.184 -0.031,0.343 -0.092,0.476 -0.062,0.132 -0.145,0.234 -0.252,0.306 -0.106,0.071 -0.228,0.107 -0.366,0.107 -0.124,0 -0.243,-0.029 -0.357,-0.087 -0.114,-0.058 -0.215,-0.145 -0.305,-0.261 -0.09,-0.117 -0.162,-0.264 -0.215,-0.442 -0.053,-0.178 -0.08,-0.38 -0.08,-0.605 0,-0.385 0.088,-0.694 0.263,-0.926 0.175,-0.233 0.414,-0.35 0.716,-0.35 0.143,0 0.268,0.031 0.373,0.092 0.105,0.062 0.186,0.144 0.242,0.248 0.056,0.104 0.084,0.216 0.084,0.337 0,0.045 -0.013,0.068 -0.039,0.068 -0.012,0 -0.022,-0.005 -0.028,-0.015 -0.007,-0.01 -0.017,-0.033 -0.032,-0.07 -0.015,-0.037 -0.03,-0.072 -0.047,-0.105 -0.11,-0.215 -0.276,-0.322 -0.498,-0.322 -0.13,0 -0.245,0.045 -0.346,0.135 -0.101,0.091 -0.179,0.22 -0.234,0.388 -0.055,0.168 -0.082,0.36 -0.082,0.577 0,0.066 0.043,0.1 0.129,0.1 h 1.031 c 0.048,0 0.08,0.006 0.098,0.019 m -1.176,0.681 c 0.048,0.123 0.113,0.221 0.195,0.292 0.083,0.072 0.174,0.107 0.273,0.107 0.13,0 0.234,-0.053 0.312,-0.161 0.078,-0.108 0.117,-0.258 0.117,-0.45 0,-0.13 -0.025,-0.213 -0.075,-0.25 -0.025,-0.02 -0.097,-0.038 -0.215,-0.054 -0.119,-0.016 -0.262,-0.024 -0.431,-0.024 -0.113,0 -0.183,0.007 -0.209,0.021 -0.025,0.015 -0.038,0.048 -0.038,0.101 0,0.156 0.024,0.295 0.071,0.418 m 3.925,0.496 c 0.049,0.214 0.114,0.387 0.197,0.521 0.082,0.134 0.172,0.23 0.269,0.29 0.097,0.059 0.194,0.089 0.289,0.089 0.141,0 0.263,-0.053 0.364,-0.158 0.102,-0.106 0.188,-0.264 0.257,-0.476 0.039,-0.121 0.066,-0.196 0.083,-0.226 0.016,-0.03 0.037,-0.044 0.063,-0.044 0.026,0 0.04,0.011 0.044,0.035 0.004,0.023 0.006,0.098 0.006,0.225 0,0.261 -0.003,0.424 -0.009,0.488 -0.005,0.064 -0.019,0.106 -0.041,0.124 -0.04,0.032 -0.128,0.068 -0.262,0.107 -0.135,0.038 -0.277,0.058 -0.425,0.058 -0.202,0 -0.387,-0.044 -0.556,-0.133 -0.169,-0.088 -0.312,-0.213 -0.429,-0.372 -0.117,-0.16 -0.209,-0.354 -0.275,-0.583 -0.066,-0.228 -0.099,-0.481 -0.099,-0.759 0,-0.378 0.059,-0.704 0.176,-0.981 0.117,-0.276 0.281,-0.488 0.49,-0.635 0.209,-0.147 0.441,-0.221 0.698,-0.221 0.134,0 0.272,0.018 0.414,0.053 0.142,0.035 0.241,0.076 0.296,0.121 0.029,0.018 0.049,0.037 0.059,0.058 0.01,0.021 0.015,0.058 0.015,0.112 l 0.005,0.71 c 0,0.072 -0.006,0.116 -0.019,0.133 -0.013,0.016 -0.035,0.024 -0.066,0.024 -0.018,0 -0.032,-0.01 -0.041,-0.031 -0.009,-0.021 -0.018,-0.057 -0.028,-0.11 -0.009,-0.052 -0.023,-0.127 -0.044,-0.225 -0.099,-0.474 -0.307,-0.712 -0.624,-0.712 -0.249,0 -0.458,0.141 -0.627,0.424 -0.169,0.283 -0.253,0.732 -0.253,1.347 0,0.284 0.024,0.533 0.073,0.747 m 3.014,-0.461 c 0.056,0.077 0.13,0.138 0.22,0.183 0.089,0.045 0.183,0.068 0.28,0.068 0.139,0 0.251,-0.041 0.336,-0.122 0.084,-0.081 0.126,-0.198 0.126,-0.35 v -1.562 c 0,-0.072 -0.014,-0.122 -0.041,-0.149 -0.028,-0.027 -0.08,-0.046 -0.157,-0.057 -0.037,-0.006 -0.063,-0.014 -0.08,-0.024 -0.016,-0.011 -0.024,-0.028 -0.024,-0.049 0,-0.02 0.007,-0.035 0.02,-0.045 0.014,-0.01 0.035,-0.015 0.062,-0.015 0.004,0 0.041,0.004 0.113,0.011 0.071,0.007 0.164,0.011 0.278,0.011 0.089,0 0.184,-0.004 0.283,-0.011 0.099,-0.007 0.143,-0.011 0.132,-0.011 0.053,0 0.08,0.018 0.08,0.054 0,0.026 -0.01,0.044 -0.031,0.055 -0.02,0.01 -0.061,0.018 -0.123,0.024 -0.061,0.005 -0.105,0.029 -0.132,0.07 -0.028,0.042 -0.042,0.107 -0.042,0.195 v 1.549 c -0.007,0.21 -0.072,0.369 -0.196,0.478 -0.124,0.11 -0.272,0.164 -0.444,0.164 -0.11,0 -0.214,-0.026 -0.311,-0.078 -0.097,-0.053 -0.185,-0.113 -0.264,-0.18 -0.079,-0.068 -0.122,-0.102 -0.129,-0.102 -0.028,0 -0.042,0.013 -0.042,0.038 v 1.644 c 0,0.051 -0.009,0.076 -0.027,0.076 -0.015,0 -0.062,-0.02 -0.14,-0.061 C 51.154,0.582 51.03,0.532 50.861,0.473 50.808,0.455 50.782,0.431 50.782,0.402 c 0,-0.031 0.039,-0.053 0.118,-0.068 0.064,-0.01 0.107,-0.025 0.129,-0.044 0.022,-0.019 0.033,-0.05 0.033,-0.094 v -3.071 c 0,-0.074 -0.005,-0.131 -0.016,-0.171 -0.011,-0.039 -0.033,-0.068 -0.065,-0.085 -0.032,-0.017 -0.08,-0.03 -0.144,-0.039 -0.052,-0.006 -0.077,-0.028 -0.077,-0.068 0,-0.043 0.023,-0.065 0.071,-0.065 0.013,0 0.055,0.004 0.127,0.011 0.071,0.007 0.157,0.011 0.258,0.011 0.114,0 0.194,-10e-4 0.241,-0.003 0.047,-0.002 0.086,-0.004 0.119,-0.007 0.033,-0.002 0.059,-0.005 0.076,-0.008 0.017,-0.002 0.03,-0.004 0.037,-0.004 0.051,0 0.077,0.018 0.077,0.054 0,0.024 -0.008,0.041 -0.023,0.052 -0.016,0.011 -0.049,0.02 -0.101,0.027 -0.088,0.012 -0.15,0.037 -0.187,0.074 -0.036,0.037 -0.055,0.09 -0.055,0.159 v 1.503 c 0,0.092 0.029,0.176 0.086,0.253 m 2.499,-1.923 c -0.027,-0.028 -0.09,-0.05 -0.191,-0.066 -0.064,-0.009 -0.096,-0.034 -0.096,-0.073 0,-0.04 0.023,-0.06 0.068,-0.06 -0.003,0 0.035,0.004 0.116,0.011 0.081,0.007 0.182,0.011 0.305,0.011 0.117,0 0.216,-0.004 0.297,-0.011 0.081,-0.007 0.125,-0.011 0.132,-0.011 0.057,0 0.085,0.018 0.085,0.054 0,0.024 -0.009,0.04 -0.027,0.049 -0.018,0.009 -0.057,0.019 -0.116,0.03 -0.088,0.018 -0.142,0.047 -0.163,0.087 -0.021,0.039 -0.032,0.106 -0.032,0.2 v 2.148 c 0,0.038 -0.015,0.057 -0.047,0.057 -0.007,0 -0.052,-0.029 -0.134,-0.087 -0.083,-0.058 -0.176,-0.105 -0.281,-0.141 -0.11,-0.042 -0.165,-0.075 -0.165,-0.1 0,-0.031 0.018,-0.05 0.052,-0.057 0.072,-0.015 0.123,-0.028 0.153,-0.042 0.03,-0.014 0.052,-0.034 0.065,-0.061 0.012,-0.027 0.019,-0.061 0.019,-0.103 V -2.91 c 0,-0.101 -0.013,-0.166 -0.04,-0.194 m 0.061,2.859 c 0.039,-0.045 0.088,-0.068 0.147,-0.068 0.064,0 0.115,0.023 0.152,0.068 0.038,0.045 0.057,0.116 0.057,0.214 0,0.094 -0.02,0.164 -0.058,0.21 -0.039,0.046 -0.089,0.069 -0.151,0.069 -0.057,0 -0.106,-0.023 -0.146,-0.069 -0.04,-0.046 -0.061,-0.116 -0.061,-0.21 0,-0.098 0.02,-0.169 0.06,-0.214 m 1.58,-2.857 c -0.029,-0.033 -0.093,-0.056 -0.192,-0.068 -0.026,-0.004 -0.047,-0.012 -0.065,-0.024 -0.017,-0.013 -0.026,-0.028 -0.026,-0.044 0,-0.043 0.023,-0.065 0.069,-0.065 -0.004,0 0.037,0.004 0.121,0.011 0.084,0.007 0.188,0.011 0.311,0.011 0.091,0 0.163,-10e-4 0.215,-0.003 0.053,-0.002 0.106,-0.005 0.16,-0.011 0.054,-0.005 0.083,-0.008 0.087,-0.008 0.042,0 0.063,0.022 0.063,0.065 0,0.02 -0.006,0.033 -0.018,0.039 -0.012,0.007 -0.042,0.016 -0.089,0.029 -0.083,0.022 -0.138,0.037 -0.165,0.046 -0.028,0.009 -0.049,0.025 -0.065,0.047 -0.016,0.023 -0.023,0.057 -0.023,0.102 v 3.583 c 0,0.051 -0.01,0.076 -0.028,0.076 -0.015,0 -0.06,-0.02 -0.137,-0.06 C 55.767,0.585 55.641,0.534 55.467,0.473 55.436,0.462 55.415,0.452 55.404,0.443 55.393,0.434 55.387,0.42 55.387,0.402 c 0,-0.031 0.04,-0.053 0.118,-0.068 0.066,-0.01 0.11,-0.025 0.132,-0.044 0.022,-0.019 0.033,-0.05 0.033,-0.094 v -3.128 c 0,-0.081 -0.014,-0.138 -0.044,-0.17 m 2.931,1.205 c 0.018,0.012 0.028,0.039 0.032,0.081 0.004,0.042 0.006,0.125 0.006,0.249 0,0.184 -0.031,0.343 -0.093,0.476 -0.061,0.132 -0.145,0.234 -0.251,0.306 -0.106,0.071 -0.228,0.107 -0.366,0.107 -0.125,0 -0.244,-0.029 -0.357,-0.087 -0.114,-0.058 -0.216,-0.145 -0.306,-0.261 -0.09,-0.117 -0.161,-0.264 -0.214,-0.442 -0.053,-0.178 -0.08,-0.38 -0.08,-0.605 0,-0.385 0.088,-0.694 0.263,-0.926 0.175,-0.233 0.414,-0.35 0.716,-0.35 0.143,0 0.267,0.031 0.373,0.092 0.105,0.062 0.186,0.144 0.242,0.248 0.056,0.104 0.084,0.216 0.084,0.337 0,0.045 -0.013,0.068 -0.039,0.068 -0.013,0 -0.022,-0.005 -0.029,-0.015 -0.006,-0.01 -0.017,-0.033 -0.031,-0.07 -0.015,-0.037 -0.031,-0.072 -0.047,-0.105 -0.11,-0.215 -0.276,-0.322 -0.498,-0.322 -0.13,0 -0.246,0.045 -0.346,0.135 -0.101,0.091 -0.179,0.22 -0.234,0.388 -0.055,0.168 -0.083,0.36 -0.083,0.577 0,0.066 0.043,0.1 0.13,0.1 h 1.031 c 0.047,0 0.08,0.006 0.097,0.019 m -1.175,0.681 c 0.047,0.123 0.113,0.221 0.195,0.292 0.083,0.072 0.173,0.107 0.272,0.107 0.13,0 0.235,-0.053 0.312,-0.161 0.078,-0.108 0.117,-0.258 0.117,-0.45 0,-0.13 -0.024,-0.213 -0.074,-0.25 -0.026,-0.02 -0.098,-0.038 -0.216,-0.054 -0.118,-0.016 -0.262,-0.024 -0.43,-0.024 -0.114,0 -0.184,0.007 -0.209,0.021 -0.026,0.015 -0.039,0.048 -0.039,0.101 0,0.156 0.024,0.295 0.072,0.418"
           style="fill:#000000;fill-opacity:1;fill-rule:nonzero;stroke:none"
           id="path401" />
      </g>
      <g
         style="fill:#000000"
         id="g403"
         transform="matrix(0.35277777,0,0,-0.35277777,105.32134,162.71097)">
        <path
           d="m 0,0 c -0.449,0.107 -0.939,0.233 -1.434,0.336 -0.133,0.027 -0.295,0.02 -0.42,-0.031 -0.731,-0.293 -1.454,-0.605 -2.18,-0.91 -0.126,-0.053 -0.251,-0.106 -0.422,-0.178 0.492,-0.21 0.933,-0.407 1.382,-0.583 0.095,-0.038 0.236,-0.031 0.33,0.012 0.602,0.275 1.196,0.565 1.793,0.849 0.149,0.071 0.3,0.137 0.478,0.217 -0.015,-0.305 -0.036,-0.572 -0.038,-0.839 -0.001,-0.122 -0.041,-0.189 -0.146,-0.249 -0.704,-0.401 -1.403,-0.811 -2.108,-1.209 -0.071,-0.04 -0.195,-0.051 -0.266,-0.016 -0.81,0.395 -1.616,0.798 -2.417,1.21 -0.068,0.035 -0.133,0.144 -0.137,0.222 -0.014,0.352 -0.006,0.705 -0.006,1.058 v 0.352 c 0.175,-0.053 0.313,-0.106 0.455,-0.133 0.097,-0.017 0.212,-0.024 0.3,0.011 0.982,0.385 1.96,0.779 2.939,1.172 0.046,0.019 0.089,0.046 0.17,0.087 -0.463,0.147 -0.882,0.285 -1.306,0.409 -0.092,0.027 -0.209,0.027 -0.3,-0.003 -0.741,-0.242 -1.479,-0.495 -2.258,-0.758 0,0.21 0.01,0.386 -0.003,0.56 -0.012,0.153 0.046,0.221 0.191,0.27 0.767,0.258 1.528,0.533 2.295,0.789 0.2,0.066 0.276,0.152 0.276,0.379 -0.008,5.476 -0.006,10.953 -0.01,16.429 0,0.188 0.044,0.302 0.22,0.401 0.651,0.364 1.291,0.749 1.934,1.128 0.058,0.033 0.112,0.073 0.139,0.091 -8.79,3.927 -17.582,7.855 -26.338,11.768 -2.567,-1.146 -5.112,-2.282 -7.669,-3.424 0.053,-0.115 0.094,-0.203 0.135,-0.292 0.773,-1.637 1.223,-3.356 1.274,-5.17 0.039,-1.369 -0.129,-2.72 -0.558,-4.02 -0.884,-2.677 -2.069,-5.205 -3.814,-7.443 -0.316,-0.403 -0.377,-0.823 -0.189,-1.304 0.381,-0.969 0.741,-1.946 1.108,-2.92 0.113,-0.301 0.222,-0.604 0.336,-0.917 0.209,0.052 0.4,0.096 0.588,0.148 1.316,0.36 2.639,0.635 4.02,0.532 1.673,-0.126 3.187,-0.664 4.544,-1.65 0.119,-0.086 0.17,-0.175 0.169,-0.328 -0.006,-2.033 -0.004,-4.065 -0.004,-6.097 v -0.177 c -0.078,0.096 -0.123,0.196 -0.168,0.297 -0.955,2.154 -3.323,4.352 -6.523,3.793 -0.397,-0.07 -0.79,-0.169 -1.2,-0.258 0.047,-0.121 0.076,-0.199 0.108,-0.276 0.996,-2.397 1.995,-4.793 2.987,-7.192 0.059,-0.142 0.139,-0.225 0.279,-0.286 1.43,-0.628 2.857,-1.263 4.285,-1.897 0.17,-0.075 0.296,-0.115 0.515,-0.013 2.069,0.958 4.153,1.882 6.235,2.808 0.081,0.037 0.211,0.033 0.29,-0.007 1.398,-0.713 2.792,-1.435 4.187,-2.155 1.301,-0.671 2.603,-1.342 3.904,-2.013 0.101,-0.052 0.186,-0.093 0.31,-0.019 1.082,0.646 2.171,1.282 3.254,1.928 0.062,0.037 0.121,0.136 0.125,0.209 0.024,0.507 0.037,1.014 0.045,1.522 0.002,0.138 0.05,0.214 0.177,0.273 0.741,0.342 1.474,0.701 2.22,1.033 0.231,0.103 0.384,0.215 0.334,0.49 -0.002,0.008 0.015,0.02 0.031,0.039 0.066,-0.031 0.135,-0.063 0.202,-0.096 0.762,-0.381 1.524,-0.759 2.283,-1.144 0.126,-0.065 0.222,-0.066 0.349,0.008 0.844,0.496 1.693,0.983 2.542,1.47 0.11,0.063 0.183,0.124 0.18,0.272 C -0.007,-0.958 0,-0.481 0,0 m -6.095,15.882 c -0.968,0.472 -1.906,1.003 -2.86,1.503 -0.101,0.054 -0.225,0.088 -0.339,0.089 -1.51,0.005 -3.021,0.005 -4.531,0 -0.108,0 -0.226,-0.025 -0.322,-0.074 -0.834,-0.425 -1.662,-0.862 -2.498,-1.284 -0.136,-0.069 -0.186,-0.145 -0.175,-0.291 0.011,-0.147 0.002,-0.296 0.002,-0.47 0.063,0.025 0.112,0.041 0.157,0.064 0.864,0.444 1.726,0.893 2.594,1.329 0.144,0.072 0.318,0.117 0.478,0.118 1.37,0.009 2.739,0.008 4.108,0.001 0.127,0 0.265,-0.036 0.378,-0.095 0.916,-0.48 1.826,-0.974 2.743,-1.454 0.126,-0.066 0.166,-0.138 0.166,-0.276 C -6.198,9.445 -6.197,3.848 -6.197,-1.748 v -0.173 c -0.988,-0.466 -1.968,-0.93 -2.952,-1.385 -0.067,-0.032 -0.167,-0.02 -0.244,0 -0.354,0.091 -0.705,0.195 -1.059,0.286 -0.069,0.018 -0.157,0.024 -0.22,-0.003 -0.985,-0.432 -1.967,-0.87 -2.949,-1.308 -0.018,-0.008 -0.032,-0.023 -0.06,-0.043 0.604,-0.291 1.198,-0.582 1.797,-0.86 0.066,-0.031 0.177,-0.008 0.25,0.026 0.861,0.416 1.72,0.839 2.58,1.259 0.067,0.033 0.137,0.06 0.189,0.082 0,-0.4 0.004,-0.787 -0.005,-1.174 -0.002,-0.052 -0.061,-0.122 -0.113,-0.153 -0.926,-0.551 -1.853,-1.1 -2.786,-1.64 -0.067,-0.038 -0.194,-0.032 -0.267,0.005 -1.848,0.946 -3.693,1.899 -5.538,2.851 -0.845,0.436 -1.691,0.869 -2.532,1.31 -0.12,0.063 -0.216,0.058 -0.335,0.004 -1.886,-0.849 -3.774,-1.695 -5.662,-2.542 -0.094,-0.042 -0.188,-0.083 -0.307,-0.135 v 37.395 c 8.248,-3.69 16.471,-7.368 24.696,-11.048 -0.021,-0.014 -0.062,-0.048 -0.107,-0.075 -0.438,-0.257 -0.871,-0.52 -1.316,-0.764 C -3.304,20.074 -3.365,19.97 -3.365,19.774 -3.359,14.319 -3.36,8.863 -3.36,3.408 V 3.132 c -0.101,0.027 -0.187,0.045 -0.27,0.073 -0.58,0.194 -1.157,0.396 -1.74,0.579 -0.17,0.054 -0.226,0.13 -0.225,0.31 0.005,3.642 -0.005,7.284 0.016,10.925 0.002,0.44 -0.118,0.668 -0.516,0.863"
           style="fill:#000000;fill-opacity:1;fill-rule:nonzero;stroke:none"
           id="path405" />
      </g>
      <g
         style="fill:#000000"
         id="g407"
         transform="matrix(0.35277777,0,0,-0.35277777,90.832856,157.05876)">
        <path
           d="m 0,0 c -0.366,1.167 -0.737,2.333 -1.1,3.5 -0.468,1.506 -0.906,3.019 -1.182,4.573 -0.076,0.432 -0.119,0.87 -0.179,1.318 -3.16,-1.409 -6.312,-2.813 -9.476,-4.223 0.047,-0.031 0.091,-0.063 0.138,-0.089 0.552,-0.311 1.1,-0.629 1.659,-0.928 C -9.964,4.056 -9.892,3.953 -9.896,3.745 -9.915,2.758 -9.918,1.77 -9.921,0.782 -9.926,-1.32 -9.927,-3.423 -9.929,-5.526 c -0.002,-1.136 -0.002,-2.272 -0.005,-3.408 -0.002,-0.797 -0.009,-1.594 -0.005,-2.391 0,-0.074 0.047,-0.19 0.104,-0.216 1.141,-0.515 2.287,-1.02 3.453,-1.535 0.019,0.066 0.037,0.113 0.045,0.161 0.334,1.85 0.988,3.589 1.807,5.272 1.131,2.324 2.688,4.364 4.263,6.389 C 0.041,-0.859 0.147,-0.468 0,0"
           style="fill:#000000;fill-opacity:1;fill-rule:nonzero;stroke:none"
           id="path409" />
      </g>
      <g
         style="fill:#000000"
         id="g411"
         transform="matrix(0.35277777,0,0,-0.35277777,91.367208,156.73491)">
        <path
           d="m 0,0 c 0.032,-0.007 0.064,-0.013 0.096,-0.02 0.059,0.051 0.13,0.094 0.174,0.155 0.362,0.503 0.736,0.999 1.075,1.518 1.681,2.58 2.72,5.378 2.844,8.481 0.025,0.632 -0.042,1.25 -0.265,1.845 C 3.901,11.977 3.887,11.978 3.876,11.973 2.372,11.304 0.868,10.635 -0.633,9.961 -0.693,9.935 -0.759,9.859 -0.769,9.797 -0.902,8.936 -1.08,8.077 -1.142,7.209 -1.254,5.647 -1.105,4.095 -0.727,2.574 -0.511,1.709 -0.244,0.858 0,0"
           style="fill:#000000;fill-opacity:1;fill-rule:nonzero;stroke:none"
           id="path413" />
      </g>
      <g
         style="fill:#000000"
         id="g415"
         transform="matrix(0.35277777,0,0,-0.35277777,91.610449,160.79066)">
        <path
           d="M 0,0 C 0.345,0.322 0.715,0.616 1.08,0.916 1.415,1.191 1.494,1.425 1.334,1.811 0.934,2.78 0.523,3.744 0.125,4.714 0.056,4.884 -0.039,4.983 -0.204,4.982 -0.684,4.148 -1.136,3.329 -1.62,2.529 -2.672,0.79 -3.634,-0.99 -4.235,-2.943 -4.368,-3.377 -4.478,-3.819 -4.6,-4.265 c 0.594,-0.263 1.158,-0.513 1.735,-0.768 0.019,0.058 0.037,0.095 0.045,0.134 C -2.411,-2.96 -1.44,-1.343 0,0"
           style="fill:#000000;fill-opacity:1;fill-rule:nonzero;stroke:none"
           id="path417" />
      </g>
      <g
         style="fill:#000000"
         id="g419"
         transform="matrix(0.35277777,0,0,-0.35277777,92.733693,161.64202)">
        <path
           d="M 0,0 C -0.059,0.143 -0.131,0.123 -0.244,0.083 -1.32,-0.294 -2.226,-0.919 -2.965,-1.784 -3.406,-2.3 -3.759,-2.872 -4.006,-3.527 -1.791,-4.508 0.414,-5.485 2.658,-6.479 2.634,-6.393 2.629,-6.365 2.619,-6.34 1.745,-4.227 0.87,-2.115 0,0"
           style="fill:#000000;fill-opacity:1;fill-rule:nonzero;stroke:none"
           id="path421" />
      </g>
      <g
         style="fill:#000000"
         id="g423"
         transform="matrix(0.35277777,0,0,-0.35277777,98.478787,160.13812)">
        <path
           d="m 0,0 c 0,2.315 -0.002,4.63 0.004,6.945 0.001,0.182 -0.079,0.206 -0.226,0.212 -0.845,0.038 -1.69,0.084 -2.535,0.124 -0.526,0.025 -1.053,0.044 -1.594,0.066 v -8.196 c 1.461,0.234 2.902,0.465 4.342,0.696 C -0.005,-0.084 0,-0.042 0,0"
           style="fill:#000000;fill-opacity:1;fill-rule:nonzero;stroke:none"
           id="path425" />
      </g>
      <g
         style="fill:#000000"
         id="g427"
         transform="matrix(0.35277777,0,0,-0.35277777,101.89611,160.37738)">
        <path
           d="m 0,0 c 0,2.123 0.001,4.247 -0.001,6.37 0,0.084 -0.01,0.169 -0.028,0.251 -0.211,0.942 -0.987,1.496 -1.946,1.392 -0.836,-0.091 -1.491,-0.87 -1.492,-1.776 0,-2.053 0,-4.106 0,-6.158 v -0.235 h 3.459 C -0.005,-0.095 0,-0.048 0,0"
           style="fill:#000000;fill-opacity:1;fill-rule:nonzero;stroke:none"
           id="path429" />
      </g>
      <g
         style="fill:#000000"
         id="g431"
         transform="matrix(0.35277777,0,0,-0.35277777,98.478927,155.559)">
        <path
           d="M 0,0 C 0,1.178 -0.003,2.357 0.004,3.535 0.005,3.701 -0.051,3.761 -0.204,3.809 -1.292,4.148 -2.375,4.5 -3.46,4.847 -3.753,4.94 -4.046,5.029 -4.357,5.125 V 0.617 C -2.911,0.338 -1.469,0.06 0,-0.224 Z"
           style="fill:#000000;fill-opacity:1;fill-rule:nonzero;stroke:none"
           id="path433" />
      </g>
      <g
         style="fill:#000000"
         id="g435"
         transform="matrix(0.35277777,0,0,-0.35277777,102.19283,160.43089)">
        <path
           d="m 0,0 h 1.561 v 0.261 c 0,1.967 0.001,3.934 -0.002,5.901 C 1.559,6.409 1.551,6.656 1.523,6.9 1.48,7.266 1.395,7.623 1.177,7.93 0.938,8.266 0.604,8.264 0.365,7.928 0.305,7.843 0.254,7.749 0.212,7.653 0.037,7.252 -0.011,6.827 -0.011,6.395 c -0.001,-2.059 0,-4.118 0,-6.176 C -0.011,0.145 -0.004,0.071 0,0"
           style="fill:#000000;fill-opacity:1;fill-rule:nonzero;stroke:none"
           id="path437" />
      </g>
      <g
         style="fill:#000000"
         id="g439"
         transform="matrix(0.35277777,0,0,-0.35277777,99.796167,160.43223)">
        <path
           d="M 0,0 H 1.529 C 1.538,0.033 1.547,0.052 1.547,0.072 1.547,2.301 1.553,4.531 1.538,6.76 1.535,7.168 1.428,7.57 1.189,7.918 0.946,8.272 0.613,8.276 0.367,7.929 0.306,7.844 0.238,7.751 0.216,7.653 0.131,7.263 0.001,6.871 -0.003,6.478 -0.024,4.383 -0.013,2.287 -0.012,0.192 -0.012,0.131 -0.005,0.069 0,0"
           style="fill:#000000;fill-opacity:1;fill-rule:nonzero;stroke:none"
           id="path441" />
      </g>
      <g
         style="fill:#000000"
         id="g443"
         transform="matrix(0.35277777,0,0,-0.35277777,103.77508,156.59832)">
        <path
           d="M 0,0 V 2.419 C -0.941,2.697 -1.88,2.975 -2.816,3.252 -2.832,3.207 -2.841,3.194 -2.841,3.181 -2.843,2.335 -2.842,1.489 -2.847,0.644 -2.847,0.522 -2.79,0.492 -2.684,0.474 -2.157,0.383 -1.632,0.285 -1.106,0.191 -0.742,0.127 -0.378,0.065 0,0"
           style="fill:#000000;fill-opacity:1;fill-rule:nonzero;stroke:none"
           id="path445" />
      </g>
      <g
         style="fill:#000000"
         id="g447"
         transform="matrix(0.35277777,0,0,-0.35277777,100.73463,154.83997)">
        <path
           d="M 0,0 C -0.477,0.19 -0.96,0.365 -1.441,0.544 -1.49,0.562 -1.544,0.568 -1.604,0.582 v -3.604 c 0.58,-0.137 1.152,-0.274 1.73,-0.411 0.01,0.058 0.02,0.085 0.02,0.112 0.001,1.045 0.003,2.089 -0.005,3.133 C 0.14,-0.123 0.064,-0.025 0,0"
           style="fill:#000000;fill-opacity:1;fill-rule:nonzero;stroke:none"
           id="path449" />
      </g>
      <g
         style="fill:#000000"
         id="g451"
         transform="matrix(0.35277777,0,0,-0.35277777,100.8068,163.05553)">
        <path
           d="m 0,0 c -0.674,-0.242 -1.346,-0.492 -2.019,-0.738 -0.446,-0.164 -0.892,-0.326 -1.338,-0.489 0.002,-0.016 0.004,-0.033 0.005,-0.049 0.669,-0.235 1.338,-0.471 2.009,-0.699 0.062,-0.021 0.15,-0.003 0.215,0.023 0.711,0.285 1.42,0.576 2.129,0.864 0.349,0.142 0.698,0.282 1.092,0.441 C 1.44,-0.411 0.841,-0.191 0.238,0.018 0.169,0.042 0.073,0.026 0,0"
           style="fill:#000000;fill-opacity:1;fill-rule:nonzero;stroke:none"
           id="path453" />
      </g>
      <g
         style="fill:#000000"
         id="g455"
         transform="matrix(0.35277777,0,0,-0.35277777,101.81095,155.19846)">
        <path
           d="m 0,0 c -0.298,0.125 -0.602,0.234 -0.905,0.347 -0.16,0.06 -0.322,0.114 -0.499,0.177 0,-1.04 -0.002,-2.047 0.005,-3.055 0,-0.052 0.07,-0.136 0.123,-0.15 0.461,-0.12 0.926,-0.227 1.421,-0.345 0,0.97 0.002,1.914 -0.006,2.858 C 0.138,-0.11 0.061,-0.025 0,0"
           style="fill:#000000;fill-opacity:1;fill-rule:nonzero;stroke:none"
           id="path457" />
      </g>
      <g
         style="fill:#000000"
         id="g459"
         transform="matrix(0.35277777,0,0,-0.35277777,100.03447,162.28806)">
        <path
           d="m 0,0 c -1.115,-0.341 -2.229,-0.684 -3.388,-1.041 0.068,-0.033 0.09,-0.047 0.115,-0.056 0.59,-0.207 1.178,-0.417 1.771,-0.615 0.085,-0.028 0.196,-0.018 0.283,0.01 0.85,0.271 1.697,0.549 2.545,0.827 0.3,0.098 0.598,0.199 0.897,0.299 C 1.535,-0.355 0.85,-0.172 0.165,0.007 0.114,0.021 0.051,0.016 0,0"
           style="fill:#000000;fill-opacity:1;fill-rule:nonzero;stroke:none"
           id="path461" />
      </g>
      <g
         style="fill:#000000"
         id="g463"
         transform="matrix(0.35277777,0,0,-0.35277777,99.154527,161.55125)">
        <path
           d="m 0,0 c -0.721,-0.21 -1.441,-0.424 -2.162,-0.637 -0.197,-0.059 -0.394,-0.118 -0.634,-0.191 0.607,-0.23 1.164,-0.445 1.725,-0.649 0.07,-0.026 0.167,-0.008 0.244,0.015 0.591,0.18 1.18,0.368 1.77,0.552 0.421,0.131 0.842,0.262 1.319,0.41 C 1.543,-0.312 0.885,-0.138 0.225,0.027 0.157,0.045 0.072,0.021 0,0"
           style="fill:#000000;fill-opacity:1;fill-rule:nonzero;stroke:none"
           id="path465" />
      </g>
    </g>
  </g>
</svg>
